<mxfile host="app.diagrams.net" modified="2023-01-25T07:14:12.657Z" agent="5.0 (Macintosh; Intel Mac OS X 10_15_7) AppleWebKit/537.36 (KHTML, like Gecko) Chrome/109.0.0.0 Safari/537.36" etag="Bp7EW2jvjYsm5b-r7OUl" version="20.8.11" type="gitlab">
  <diagram id="R2lEEEUBdFMjLlhIrx00" name="Page-1">
    <mxGraphModel dx="7704" dy="6166" grid="1" gridSize="10" guides="1" tooltips="1" connect="1" arrows="1" fold="1" page="1" pageScale="1" pageWidth="850" pageHeight="1100" math="0" shadow="0" extFonts="Permanent Marker^https://fonts.googleapis.com/css?family=Permanent+Marker">
      <root>
        <mxCell id="0" />
        <mxCell id="1" parent="0" />
        <mxCell id="yN72wSK38ZJyTHiqPAD0-3" value="" style="shape=stencil(fZBdDoMgEIRPs+8UTtDQ9h6oq2wkYhZar19+6kOxNiEkOzOZbwGUDtasCFJYUDeQ8iJEutO8NbMJK/axii/DZDqH1QmR/YwbDfHTQYtFpphddQdxTZl8lO5MP0/sn8vwZew2Z8CR3G4G8tH0JuWkWunRM/5hjuRcfcCP5j10GijoA6Go9V+L8AY=);strokeColor=#4400FF;movable=0;resizable=0;rotatable=0;deletable=0;editable=0;connectable=0;" parent="1" vertex="1">
          <mxGeometry x="-2500" y="-2400" width="4084.41" height="2690" as="geometry" />
        </mxCell>
        <mxCell id="yN72wSK38ZJyTHiqPAD0-576" value="&lt;b style=&quot;border-color: var(--border-color); font-size: 72px;&quot;&gt;서비스 내적인 테이블(기능)&lt;/b&gt;" style="text;html=1;align=center;verticalAlign=middle;resizable=0;points=[];autosize=1;strokeColor=none;fillColor=none;" parent="1" vertex="1">
          <mxGeometry x="-2470" y="-2280" width="800" height="100" as="geometry" />
        </mxCell>
        <mxCell id="yN72wSK38ZJyTHiqPAD0-442" value="kn_activity_history(관리자 활동 이력 테이블)" style="shape=table;startSize=30;container=1;collapsible=1;childLayout=tableLayout;fixedRows=1;rowLines=0;fontStyle=1;align=center;resizeLast=1;" parent="1" vertex="1">
          <mxGeometry x="-1410" y="-2158" width="450" height="350" as="geometry">
            <mxRectangle x="20" y="20" width="290" height="30" as="alternateBounds" />
          </mxGeometry>
        </mxCell>
        <mxCell id="yN72wSK38ZJyTHiqPAD0-443" value="" style="shape=partialRectangle;collapsible=0;dropTarget=0;pointerEvents=0;fillColor=none;top=0;left=0;bottom=1;right=0;points=[[0,0.5],[1,0.5]];portConstraint=eastwest;" parent="yN72wSK38ZJyTHiqPAD0-442" vertex="1">
          <mxGeometry y="30" width="450" height="30" as="geometry" />
        </mxCell>
        <mxCell id="yN72wSK38ZJyTHiqPAD0-444" value="PK" style="shape=partialRectangle;connectable=0;fillColor=none;top=0;left=0;bottom=0;right=0;fontStyle=1;overflow=hidden;" parent="yN72wSK38ZJyTHiqPAD0-443" vertex="1">
          <mxGeometry width="30" height="30" as="geometry">
            <mxRectangle width="30" height="30" as="alternateBounds" />
          </mxGeometry>
        </mxCell>
        <mxCell id="yN72wSK38ZJyTHiqPAD0-445" value="ah_id : bigint : autoingrement" style="shape=partialRectangle;connectable=0;fillColor=none;top=0;left=0;bottom=0;right=0;align=left;spacingLeft=6;fontStyle=5;overflow=hidden;" parent="yN72wSK38ZJyTHiqPAD0-443" vertex="1">
          <mxGeometry x="30" width="420" height="30" as="geometry">
            <mxRectangle width="420" height="30" as="alternateBounds" />
          </mxGeometry>
        </mxCell>
        <mxCell id="yN72wSK38ZJyTHiqPAD0-446" value="" style="shape=partialRectangle;collapsible=0;dropTarget=0;pointerEvents=0;fillColor=none;top=0;left=0;bottom=0;right=0;points=[[0,0.5],[1,0.5]];portConstraint=eastwest;" parent="yN72wSK38ZJyTHiqPAD0-442" vertex="1">
          <mxGeometry y="60" width="450" height="30" as="geometry" />
        </mxCell>
        <mxCell id="yN72wSK38ZJyTHiqPAD0-447" value="" style="shape=partialRectangle;connectable=0;fillColor=none;top=0;left=0;bottom=0;right=0;editable=1;overflow=hidden;" parent="yN72wSK38ZJyTHiqPAD0-446" vertex="1">
          <mxGeometry width="30" height="30" as="geometry">
            <mxRectangle width="30" height="30" as="alternateBounds" />
          </mxGeometry>
        </mxCell>
        <mxCell id="yN72wSK38ZJyTHiqPAD0-448" value="admin_id : bigint : 관리자(kn_admin) id" style="shape=partialRectangle;connectable=0;fillColor=none;top=0;left=0;bottom=0;right=0;align=left;spacingLeft=6;overflow=hidden;" parent="yN72wSK38ZJyTHiqPAD0-446" vertex="1">
          <mxGeometry x="30" width="420" height="30" as="geometry">
            <mxRectangle width="420" height="30" as="alternateBounds" />
          </mxGeometry>
        </mxCell>
        <mxCell id="yN72wSK38ZJyTHiqPAD0-449" value="" style="shape=partialRectangle;collapsible=0;dropTarget=0;pointerEvents=0;fillColor=none;top=0;left=0;bottom=0;right=0;points=[[0,0.5],[1,0.5]];portConstraint=eastwest;" parent="yN72wSK38ZJyTHiqPAD0-442" vertex="1">
          <mxGeometry y="90" width="450" height="30" as="geometry" />
        </mxCell>
        <mxCell id="yN72wSK38ZJyTHiqPAD0-450" value="" style="shape=partialRectangle;connectable=0;fillColor=none;top=0;left=0;bottom=0;right=0;editable=1;overflow=hidden;" parent="yN72wSK38ZJyTHiqPAD0-449" vertex="1">
          <mxGeometry width="30" height="30" as="geometry">
            <mxRectangle width="30" height="30" as="alternateBounds" />
          </mxGeometry>
        </mxCell>
        <mxCell id="yN72wSK38ZJyTHiqPAD0-451" value="company_id : bigint : 회사(kn_company) id" style="shape=partialRectangle;connectable=0;fillColor=none;top=0;left=0;bottom=0;right=0;align=left;spacingLeft=6;overflow=hidden;" parent="yN72wSK38ZJyTHiqPAD0-449" vertex="1">
          <mxGeometry x="30" width="420" height="30" as="geometry">
            <mxRectangle width="420" height="30" as="alternateBounds" />
          </mxGeometry>
        </mxCell>
        <mxCell id="yN72wSK38ZJyTHiqPAD0-452" value="" style="shape=partialRectangle;collapsible=0;dropTarget=0;pointerEvents=0;fillColor=none;top=0;left=0;bottom=0;right=0;points=[[0,0.5],[1,0.5]];portConstraint=eastwest;" parent="yN72wSK38ZJyTHiqPAD0-442" vertex="1">
          <mxGeometry y="120" width="450" height="30" as="geometry" />
        </mxCell>
        <mxCell id="yN72wSK38ZJyTHiqPAD0-453" value="" style="shape=partialRectangle;connectable=0;fillColor=none;top=0;left=0;bottom=0;right=0;editable=1;overflow=hidden;" parent="yN72wSK38ZJyTHiqPAD0-452" vertex="1">
          <mxGeometry width="30" height="30" as="geometry">
            <mxRectangle width="30" height="30" as="alternateBounds" />
          </mxGeometry>
        </mxCell>
        <mxCell id="yN72wSK38ZJyTHiqPAD0-454" value="ah_type : int : 1:고객정보처리,2:관리자활동,3:회원DB관리이력" style="shape=partialRectangle;connectable=0;fillColor=none;top=0;left=0;bottom=0;right=0;align=left;spacingLeft=6;overflow=hidden;" parent="yN72wSK38ZJyTHiqPAD0-452" vertex="1">
          <mxGeometry x="30" width="420" height="30" as="geometry">
            <mxRectangle width="420" height="30" as="alternateBounds" />
          </mxGeometry>
        </mxCell>
        <mxCell id="yN72wSK38ZJyTHiqPAD0-455" value="" style="shape=partialRectangle;collapsible=0;dropTarget=0;pointerEvents=0;fillColor=none;top=0;left=0;bottom=0;right=0;points=[[0,0.5],[1,0.5]];portConstraint=eastwest;" parent="yN72wSK38ZJyTHiqPAD0-442" vertex="1">
          <mxGeometry y="150" width="450" height="30" as="geometry" />
        </mxCell>
        <mxCell id="yN72wSK38ZJyTHiqPAD0-456" value="&#xa;&#xa;&lt;span style=&quot;color: rgb(0, 0, 0); font-family: helvetica; font-size: 12px; font-style: normal; font-weight: 400; letter-spacing: normal; text-align: left; text-indent: 0px; text-transform: none; word-spacing: 0px; background-color: rgb(248, 249, 250); display: inline; float: none;&quot;&gt;pi_weight_safe : double :&amp;nbsp;접수코드&lt;/span&gt;&#xa;&#xa;" style="shape=partialRectangle;connectable=0;fillColor=none;top=0;left=0;bottom=0;right=0;editable=1;overflow=hidden;" parent="yN72wSK38ZJyTHiqPAD0-455" vertex="1">
          <mxGeometry width="30" height="30" as="geometry">
            <mxRectangle width="30" height="30" as="alternateBounds" />
          </mxGeometry>
        </mxCell>
        <mxCell id="yN72wSK38ZJyTHiqPAD0-457" value="ah_activity_code : varchar(50) : 활동 관리 코드 Enum관리 -&gt; ActivityCode" style="shape=partialRectangle;connectable=0;fillColor=none;top=0;left=0;bottom=0;right=0;align=left;spacingLeft=6;overflow=hidden;" parent="yN72wSK38ZJyTHiqPAD0-455" vertex="1">
          <mxGeometry x="30" width="420" height="30" as="geometry">
            <mxRectangle width="420" height="30" as="alternateBounds" />
          </mxGeometry>
        </mxCell>
        <mxCell id="yN72wSK38ZJyTHiqPAD0-458" value="" style="shape=partialRectangle;collapsible=0;dropTarget=0;pointerEvents=0;fillColor=none;top=0;left=0;bottom=0;right=0;points=[[0,0.5],[1,0.5]];portConstraint=eastwest;" parent="yN72wSK38ZJyTHiqPAD0-442" vertex="1">
          <mxGeometry y="180" width="450" height="30" as="geometry" />
        </mxCell>
        <mxCell id="yN72wSK38ZJyTHiqPAD0-459" value="" style="shape=partialRectangle;connectable=0;fillColor=none;top=0;left=0;bottom=0;right=0;editable=1;overflow=hidden;" parent="yN72wSK38ZJyTHiqPAD0-458" vertex="1">
          <mxGeometry width="30" height="30" as="geometry">
            <mxRectangle width="30" height="30" as="alternateBounds" />
          </mxGeometry>
        </mxCell>
        <mxCell id="yN72wSK38ZJyTHiqPAD0-460" value="ah_activity_detail : varchar(256) : 활동 상세 내역" style="shape=partialRectangle;connectable=0;fillColor=none;top=0;left=0;bottom=0;right=0;align=left;spacingLeft=6;overflow=hidden;" parent="yN72wSK38ZJyTHiqPAD0-458" vertex="1">
          <mxGeometry x="30" width="420" height="30" as="geometry">
            <mxRectangle width="420" height="30" as="alternateBounds" />
          </mxGeometry>
        </mxCell>
        <mxCell id="yN72wSK38ZJyTHiqPAD0-461" value="" style="shape=partialRectangle;collapsible=0;dropTarget=0;pointerEvents=0;fillColor=none;top=0;left=0;bottom=0;right=0;points=[[0,0.5],[1,0.5]];portConstraint=eastwest;" parent="yN72wSK38ZJyTHiqPAD0-442" vertex="1">
          <mxGeometry y="210" width="450" height="30" as="geometry" />
        </mxCell>
        <mxCell id="yN72wSK38ZJyTHiqPAD0-462" value="" style="shape=partialRectangle;connectable=0;fillColor=none;top=0;left=0;bottom=0;right=0;editable=1;overflow=hidden;" parent="yN72wSK38ZJyTHiqPAD0-461" vertex="1">
          <mxGeometry width="30" height="30" as="geometry">
            <mxRectangle width="30" height="30" as="alternateBounds" />
          </mxGeometry>
        </mxCell>
        <mxCell id="yN72wSK38ZJyTHiqPAD0-463" value="ah_reason : varchar(256) : 사유" style="shape=partialRectangle;connectable=0;fillColor=none;top=0;left=0;bottom=0;right=0;align=left;spacingLeft=6;overflow=hidden;" parent="yN72wSK38ZJyTHiqPAD0-461" vertex="1">
          <mxGeometry x="30" width="420" height="30" as="geometry">
            <mxRectangle width="420" height="30" as="alternateBounds" />
          </mxGeometry>
        </mxCell>
        <mxCell id="yN72wSK38ZJyTHiqPAD0-464" value="" style="shape=partialRectangle;collapsible=0;dropTarget=0;pointerEvents=0;fillColor=none;top=0;left=0;bottom=0;right=0;points=[[0,0.5],[1,0.5]];portConstraint=eastwest;" parent="yN72wSK38ZJyTHiqPAD0-442" vertex="1">
          <mxGeometry y="240" width="450" height="30" as="geometry" />
        </mxCell>
        <mxCell id="yN72wSK38ZJyTHiqPAD0-465" value="" style="shape=partialRectangle;connectable=0;fillColor=none;top=0;left=0;bottom=0;right=0;editable=1;overflow=hidden;" parent="yN72wSK38ZJyTHiqPAD0-464" vertex="1">
          <mxGeometry width="30" height="30" as="geometry">
            <mxRectangle width="30" height="30" as="alternateBounds" />
          </mxGeometry>
        </mxCell>
        <mxCell id="yN72wSK38ZJyTHiqPAD0-466" value="ah_ip_addr : varchar(64) : 접속IP주소" style="shape=partialRectangle;connectable=0;fillColor=none;top=0;left=0;bottom=0;right=0;align=left;spacingLeft=6;overflow=hidden;" parent="yN72wSK38ZJyTHiqPAD0-464" vertex="1">
          <mxGeometry x="30" width="420" height="30" as="geometry">
            <mxRectangle width="420" height="30" as="alternateBounds" />
          </mxGeometry>
        </mxCell>
        <mxCell id="QpPn6M7AtIJ3UEPPNxAw-5" value="" style="shape=partialRectangle;collapsible=0;dropTarget=0;pointerEvents=0;fillColor=none;top=0;left=0;bottom=0;right=0;points=[[0,0.5],[1,0.5]];portConstraint=eastwest;" vertex="1" parent="yN72wSK38ZJyTHiqPAD0-442">
          <mxGeometry y="270" width="450" height="20" as="geometry" />
        </mxCell>
        <mxCell id="QpPn6M7AtIJ3UEPPNxAw-6" value="" style="shape=partialRectangle;connectable=0;fillColor=none;top=0;left=0;bottom=0;right=0;editable=1;overflow=hidden;" vertex="1" parent="QpPn6M7AtIJ3UEPPNxAw-5">
          <mxGeometry width="30" height="20" as="geometry">
            <mxRectangle width="30" height="20" as="alternateBounds" />
          </mxGeometry>
        </mxCell>
        <mxCell id="QpPn6M7AtIJ3UEPPNxAw-7" value="ah_state : int : 0:비정상, 1:정상" style="shape=partialRectangle;connectable=0;fillColor=none;top=0;left=0;bottom=0;right=0;align=left;spacingLeft=6;overflow=hidden;" vertex="1" parent="QpPn6M7AtIJ3UEPPNxAw-5">
          <mxGeometry x="30" width="420" height="20" as="geometry">
            <mxRectangle width="420" height="20" as="alternateBounds" />
          </mxGeometry>
        </mxCell>
        <mxCell id="QpPn6M7AtIJ3UEPPNxAw-2" value="" style="shape=partialRectangle;collapsible=0;dropTarget=0;pointerEvents=0;fillColor=none;top=0;left=0;bottom=0;right=0;points=[[0,0.5],[1,0.5]];portConstraint=eastwest;" vertex="1" parent="yN72wSK38ZJyTHiqPAD0-442">
          <mxGeometry y="290" width="450" height="30" as="geometry" />
        </mxCell>
        <mxCell id="QpPn6M7AtIJ3UEPPNxAw-3" value="" style="shape=partialRectangle;connectable=0;fillColor=none;top=0;left=0;bottom=0;right=0;editable=1;overflow=hidden;" vertex="1" parent="QpPn6M7AtIJ3UEPPNxAw-2">
          <mxGeometry width="30" height="30" as="geometry">
            <mxRectangle width="30" height="30" as="alternateBounds" />
          </mxGeometry>
        </mxCell>
        <mxCell id="QpPn6M7AtIJ3UEPPNxAw-4" value="insert_email : varchar(320) : 등록자" style="shape=partialRectangle;connectable=0;fillColor=none;top=0;left=0;bottom=0;right=0;align=left;spacingLeft=6;overflow=hidden;" vertex="1" parent="QpPn6M7AtIJ3UEPPNxAw-2">
          <mxGeometry x="30" width="420" height="30" as="geometry">
            <mxRectangle width="420" height="30" as="alternateBounds" />
          </mxGeometry>
        </mxCell>
        <mxCell id="QpPn6M7AtIJ3UEPPNxAw-8" value="" style="shape=partialRectangle;collapsible=0;dropTarget=0;pointerEvents=0;fillColor=none;top=0;left=0;bottom=0;right=0;points=[[0,0.5],[1,0.5]];portConstraint=eastwest;" vertex="1" parent="yN72wSK38ZJyTHiqPAD0-442">
          <mxGeometry y="320" width="450" height="30" as="geometry" />
        </mxCell>
        <mxCell id="QpPn6M7AtIJ3UEPPNxAw-9" value="" style="shape=partialRectangle;connectable=0;fillColor=none;top=0;left=0;bottom=0;right=0;editable=1;overflow=hidden;" vertex="1" parent="QpPn6M7AtIJ3UEPPNxAw-8">
          <mxGeometry width="30" height="30" as="geometry">
            <mxRectangle width="30" height="30" as="alternateBounds" />
          </mxGeometry>
        </mxCell>
        <mxCell id="QpPn6M7AtIJ3UEPPNxAw-10" value="insert_date : datetime : 등록일시" style="shape=partialRectangle;connectable=0;fillColor=none;top=0;left=0;bottom=0;right=0;align=left;spacingLeft=6;overflow=hidden;" vertex="1" parent="QpPn6M7AtIJ3UEPPNxAw-8">
          <mxGeometry x="30" width="420" height="30" as="geometry">
            <mxRectangle width="420" height="30" as="alternateBounds" />
          </mxGeometry>
        </mxCell>
        <mxCell id="QpPn6M7AtIJ3UEPPNxAw-11" value="kn_admin(관리자 테이블)" style="shape=table;startSize=30;container=1;collapsible=1;childLayout=tableLayout;fixedRows=1;rowLines=0;fontStyle=1;align=center;resizeLast=1;" vertex="1" parent="1">
          <mxGeometry x="-1930" y="-2158" width="440" height="1135" as="geometry">
            <mxRectangle x="20" y="20" width="290" height="30" as="alternateBounds" />
          </mxGeometry>
        </mxCell>
        <mxCell id="QpPn6M7AtIJ3UEPPNxAw-12" value="" style="shape=partialRectangle;collapsible=0;dropTarget=0;pointerEvents=0;fillColor=none;top=0;left=0;bottom=1;right=0;points=[[0,0.5],[1,0.5]];portConstraint=eastwest;" vertex="1" parent="QpPn6M7AtIJ3UEPPNxAw-11">
          <mxGeometry y="30" width="440" height="30" as="geometry" />
        </mxCell>
        <mxCell id="QpPn6M7AtIJ3UEPPNxAw-13" value="PK" style="shape=partialRectangle;connectable=0;fillColor=none;top=0;left=0;bottom=0;right=0;fontStyle=1;overflow=hidden;" vertex="1" parent="QpPn6M7AtIJ3UEPPNxAw-12">
          <mxGeometry width="30" height="30" as="geometry">
            <mxRectangle width="30" height="30" as="alternateBounds" />
          </mxGeometry>
        </mxCell>
        <mxCell id="QpPn6M7AtIJ3UEPPNxAw-14" value="admin_id : bigint : autoingrement" style="shape=partialRectangle;connectable=0;fillColor=none;top=0;left=0;bottom=0;right=0;align=left;spacingLeft=6;fontStyle=5;overflow=hidden;" vertex="1" parent="QpPn6M7AtIJ3UEPPNxAw-12">
          <mxGeometry x="30" width="410" height="30" as="geometry">
            <mxRectangle width="410" height="30" as="alternateBounds" />
          </mxGeometry>
        </mxCell>
        <mxCell id="QpPn6M7AtIJ3UEPPNxAw-15" value="" style="shape=partialRectangle;collapsible=0;dropTarget=0;pointerEvents=0;fillColor=none;top=0;left=0;bottom=0;right=0;points=[[0,0.5],[1,0.5]];portConstraint=eastwest;" vertex="1" parent="QpPn6M7AtIJ3UEPPNxAw-11">
          <mxGeometry y="60" width="440" height="30" as="geometry" />
        </mxCell>
        <mxCell id="QpPn6M7AtIJ3UEPPNxAw-16" value="" style="shape=partialRectangle;connectable=0;fillColor=none;top=0;left=0;bottom=0;right=0;editable=1;overflow=hidden;" vertex="1" parent="QpPn6M7AtIJ3UEPPNxAw-15">
          <mxGeometry width="30" height="30" as="geometry">
            <mxRectangle width="30" height="30" as="alternateBounds" />
          </mxGeometry>
        </mxCell>
        <mxCell id="QpPn6M7AtIJ3UEPPNxAw-17" value="company_id : bigint : 회사(company) id" style="shape=partialRectangle;connectable=0;fillColor=none;top=0;left=0;bottom=0;right=0;align=left;spacingLeft=6;overflow=hidden;" vertex="1" parent="QpPn6M7AtIJ3UEPPNxAw-15">
          <mxGeometry x="30" width="410" height="30" as="geometry">
            <mxRectangle width="410" height="30" as="alternateBounds" />
          </mxGeometry>
        </mxCell>
        <mxCell id="QpPn6M7AtIJ3UEPPNxAw-18" value="" style="shape=partialRectangle;collapsible=0;dropTarget=0;pointerEvents=0;fillColor=none;top=0;left=0;bottom=0;right=0;points=[[0,0.5],[1,0.5]];portConstraint=eastwest;" vertex="1" parent="QpPn6M7AtIJ3UEPPNxAw-11">
          <mxGeometry y="90" width="440" height="30" as="geometry" />
        </mxCell>
        <mxCell id="QpPn6M7AtIJ3UEPPNxAw-19" value="" style="shape=partialRectangle;connectable=0;fillColor=none;top=0;left=0;bottom=0;right=0;editable=1;overflow=hidden;" vertex="1" parent="QpPn6M7AtIJ3UEPPNxAw-18">
          <mxGeometry width="30" height="30" as="geometry">
            <mxRectangle width="30" height="30" as="alternateBounds" />
          </mxGeometry>
        </mxCell>
        <mxCell id="QpPn6M7AtIJ3UEPPNxAw-20" value="master_id : bigint : 마스터 id (마스터는 0), 해당 관리자를 등록한 관리자의 id" style="shape=partialRectangle;connectable=0;fillColor=none;top=0;left=0;bottom=0;right=0;align=left;spacingLeft=6;overflow=hidden;" vertex="1" parent="QpPn6M7AtIJ3UEPPNxAw-18">
          <mxGeometry x="30" width="410" height="30" as="geometry">
            <mxRectangle width="410" height="30" as="alternateBounds" />
          </mxGeometry>
        </mxCell>
        <mxCell id="QpPn6M7AtIJ3UEPPNxAw-21" value="" style="shape=partialRectangle;collapsible=0;dropTarget=0;pointerEvents=0;fillColor=none;top=0;left=0;bottom=0;right=0;points=[[0,0.5],[1,0.5]];portConstraint=eastwest;" vertex="1" parent="QpPn6M7AtIJ3UEPPNxAw-11">
          <mxGeometry y="120" width="440" height="30" as="geometry" />
        </mxCell>
        <mxCell id="QpPn6M7AtIJ3UEPPNxAw-22" value="" style="shape=partialRectangle;connectable=0;fillColor=none;top=0;left=0;bottom=0;right=0;editable=1;overflow=hidden;" vertex="1" parent="QpPn6M7AtIJ3UEPPNxAw-21">
          <mxGeometry width="30" height="30" as="geometry">
            <mxRectangle width="30" height="30" as="alternateBounds" />
          </mxGeometry>
        </mxCell>
        <mxCell id="QpPn6M7AtIJ3UEPPNxAw-23" value="kn_user_type : int : 회원타입(1:사업자,2:개인)" style="shape=partialRectangle;connectable=0;fillColor=none;top=0;left=0;bottom=0;right=0;align=left;spacingLeft=6;overflow=hidden;" vertex="1" parent="QpPn6M7AtIJ3UEPPNxAw-21">
          <mxGeometry x="30" width="410" height="30" as="geometry">
            <mxRectangle width="410" height="30" as="alternateBounds" />
          </mxGeometry>
        </mxCell>
        <mxCell id="QpPn6M7AtIJ3UEPPNxAw-24" value="" style="shape=partialRectangle;collapsible=0;dropTarget=0;pointerEvents=0;fillColor=none;top=0;left=0;bottom=0;right=0;points=[[0,0.5],[1,0.5]];portConstraint=eastwest;" vertex="1" parent="QpPn6M7AtIJ3UEPPNxAw-11">
          <mxGeometry y="150" width="440" height="30" as="geometry" />
        </mxCell>
        <mxCell id="QpPn6M7AtIJ3UEPPNxAw-25" value="&#xa;&#xa;&lt;span style=&quot;color: rgb(0, 0, 0); font-family: helvetica; font-size: 12px; font-style: normal; font-weight: 400; letter-spacing: normal; text-align: left; text-indent: 0px; text-transform: none; word-spacing: 0px; background-color: rgb(248, 249, 250); display: inline; float: none;&quot;&gt;pi_weight_safe : double :&amp;nbsp;접수코드&lt;/span&gt;&#xa;&#xa;" style="shape=partialRectangle;connectable=0;fillColor=none;top=0;left=0;bottom=0;right=0;editable=1;overflow=hidden;" vertex="1" parent="QpPn6M7AtIJ3UEPPNxAw-24">
          <mxGeometry width="30" height="30" as="geometry">
            <mxRectangle width="30" height="30" as="alternateBounds" />
          </mxGeometry>
        </mxCell>
        <mxCell id="QpPn6M7AtIJ3UEPPNxAw-26" value="kn_email : varchar(320) : 이메일" style="shape=partialRectangle;connectable=0;fillColor=none;top=0;left=0;bottom=0;right=0;align=left;spacingLeft=6;overflow=hidden;" vertex="1" parent="QpPn6M7AtIJ3UEPPNxAw-24">
          <mxGeometry x="30" width="410" height="30" as="geometry">
            <mxRectangle width="410" height="30" as="alternateBounds" />
          </mxGeometry>
        </mxCell>
        <mxCell id="QpPn6M7AtIJ3UEPPNxAw-27" value="" style="shape=partialRectangle;collapsible=0;dropTarget=0;pointerEvents=0;fillColor=none;top=0;left=0;bottom=0;right=0;points=[[0,0.5],[1,0.5]];portConstraint=eastwest;" vertex="1" parent="QpPn6M7AtIJ3UEPPNxAw-11">
          <mxGeometry y="180" width="440" height="30" as="geometry" />
        </mxCell>
        <mxCell id="QpPn6M7AtIJ3UEPPNxAw-28" value="" style="shape=partialRectangle;connectable=0;fillColor=none;top=0;left=0;bottom=0;right=0;editable=1;overflow=hidden;" vertex="1" parent="QpPn6M7AtIJ3UEPPNxAw-27">
          <mxGeometry width="30" height="30" as="geometry">
            <mxRectangle width="30" height="30" as="alternateBounds" />
          </mxGeometry>
        </mxCell>
        <mxCell id="QpPn6M7AtIJ3UEPPNxAw-29" value="kn_password : varchar(256) : 비밀번호" style="shape=partialRectangle;connectable=0;fillColor=none;top=0;left=0;bottom=0;right=0;align=left;spacingLeft=6;overflow=hidden;" vertex="1" parent="QpPn6M7AtIJ3UEPPNxAw-27">
          <mxGeometry x="30" width="410" height="30" as="geometry">
            <mxRectangle width="410" height="30" as="alternateBounds" />
          </mxGeometry>
        </mxCell>
        <mxCell id="QpPn6M7AtIJ3UEPPNxAw-30" value="" style="shape=partialRectangle;collapsible=0;dropTarget=0;pointerEvents=0;fillColor=none;top=0;left=0;bottom=0;right=0;points=[[0,0.5],[1,0.5]];portConstraint=eastwest;" vertex="1" parent="QpPn6M7AtIJ3UEPPNxAw-11">
          <mxGeometry y="210" width="440" height="30" as="geometry" />
        </mxCell>
        <mxCell id="QpPn6M7AtIJ3UEPPNxAw-31" value="" style="shape=partialRectangle;connectable=0;fillColor=none;top=0;left=0;bottom=0;right=0;editable=1;overflow=hidden;" vertex="1" parent="QpPn6M7AtIJ3UEPPNxAw-30">
          <mxGeometry width="30" height="30" as="geometry">
            <mxRectangle width="30" height="30" as="alternateBounds" />
          </mxGeometry>
        </mxCell>
        <mxCell id="QpPn6M7AtIJ3UEPPNxAw-32" value="kn_pwd_change_date : datetime : 비밀번호 변경 일자" style="shape=partialRectangle;connectable=0;fillColor=none;top=0;left=0;bottom=0;right=0;align=left;spacingLeft=6;overflow=hidden;" vertex="1" parent="QpPn6M7AtIJ3UEPPNxAw-30">
          <mxGeometry x="30" width="410" height="30" as="geometry">
            <mxRectangle width="410" height="30" as="alternateBounds" />
          </mxGeometry>
        </mxCell>
        <mxCell id="QpPn6M7AtIJ3UEPPNxAw-33" value="" style="shape=partialRectangle;collapsible=0;dropTarget=0;pointerEvents=0;fillColor=none;top=0;left=0;bottom=0;right=0;points=[[0,0.5],[1,0.5]];portConstraint=eastwest;" vertex="1" parent="QpPn6M7AtIJ3UEPPNxAw-11">
          <mxGeometry y="240" width="440" height="30" as="geometry" />
        </mxCell>
        <mxCell id="QpPn6M7AtIJ3UEPPNxAw-34" value="" style="shape=partialRectangle;connectable=0;fillColor=none;top=0;left=0;bottom=0;right=0;editable=1;overflow=hidden;" vertex="1" parent="QpPn6M7AtIJ3UEPPNxAw-33">
          <mxGeometry width="30" height="30" as="geometry">
            <mxRectangle width="30" height="30" as="alternateBounds" />
          </mxGeometry>
        </mxCell>
        <mxCell id="QpPn6M7AtIJ3UEPPNxAw-35" value="kn_pwd_error_count : int : 비밀번호오류횟수" style="shape=partialRectangle;connectable=0;fillColor=none;top=0;left=0;bottom=0;right=0;align=left;spacingLeft=6;overflow=hidden;" vertex="1" parent="QpPn6M7AtIJ3UEPPNxAw-33">
          <mxGeometry x="30" width="410" height="30" as="geometry">
            <mxRectangle width="410" height="30" as="alternateBounds" />
          </mxGeometry>
        </mxCell>
        <mxCell id="QpPn6M7AtIJ3UEPPNxAw-36" value="" style="shape=partialRectangle;collapsible=0;dropTarget=0;pointerEvents=0;fillColor=none;top=0;left=0;bottom=0;right=0;points=[[0,0.5],[1,0.5]];portConstraint=eastwest;" vertex="1" parent="QpPn6M7AtIJ3UEPPNxAw-11">
          <mxGeometry y="270" width="440" height="20" as="geometry" />
        </mxCell>
        <mxCell id="QpPn6M7AtIJ3UEPPNxAw-37" value="" style="shape=partialRectangle;connectable=0;fillColor=none;top=0;left=0;bottom=0;right=0;editable=1;overflow=hidden;" vertex="1" parent="QpPn6M7AtIJ3UEPPNxAw-36">
          <mxGeometry width="30" height="20" as="geometry">
            <mxRectangle width="30" height="20" as="alternateBounds" />
          </mxGeometry>
        </mxCell>
        <mxCell id="QpPn6M7AtIJ3UEPPNxAw-38" value="kn_name : varchar(128) : 이름(대표자명)" style="shape=partialRectangle;connectable=0;fillColor=none;top=0;left=0;bottom=0;right=0;align=left;spacingLeft=6;overflow=hidden;" vertex="1" parent="QpPn6M7AtIJ3UEPPNxAw-36">
          <mxGeometry x="30" width="410" height="20" as="geometry">
            <mxRectangle width="410" height="20" as="alternateBounds" />
          </mxGeometry>
        </mxCell>
        <mxCell id="QpPn6M7AtIJ3UEPPNxAw-39" value="" style="shape=partialRectangle;collapsible=0;dropTarget=0;pointerEvents=0;fillColor=none;top=0;left=0;bottom=0;right=0;points=[[0,0.5],[1,0.5]];portConstraint=eastwest;" vertex="1" parent="QpPn6M7AtIJ3UEPPNxAw-11">
          <mxGeometry y="290" width="440" height="35" as="geometry" />
        </mxCell>
        <mxCell id="QpPn6M7AtIJ3UEPPNxAw-40" value="" style="shape=partialRectangle;connectable=0;fillColor=none;top=0;left=0;bottom=0;right=0;editable=1;overflow=hidden;" vertex="1" parent="QpPn6M7AtIJ3UEPPNxAw-39">
          <mxGeometry width="30" height="35" as="geometry">
            <mxRectangle width="30" height="35" as="alternateBounds" />
          </mxGeometry>
        </mxCell>
        <mxCell id="QpPn6M7AtIJ3UEPPNxAw-41" value="kn_phone_number : varchar(64) : 휴대폰번호" style="shape=partialRectangle;connectable=0;fillColor=none;top=0;left=0;bottom=0;right=0;align=left;spacingLeft=6;overflow=hidden;" vertex="1" parent="QpPn6M7AtIJ3UEPPNxAw-39">
          <mxGeometry x="30" width="410" height="35" as="geometry">
            <mxRectangle width="410" height="35" as="alternateBounds" />
          </mxGeometry>
        </mxCell>
        <mxCell id="QpPn6M7AtIJ3UEPPNxAw-42" value="" style="shape=partialRectangle;collapsible=0;dropTarget=0;pointerEvents=0;fillColor=none;top=0;left=0;bottom=0;right=0;points=[[0,0.5],[1,0.5]];portConstraint=eastwest;" vertex="1" parent="QpPn6M7AtIJ3UEPPNxAw-11">
          <mxGeometry y="325" width="440" height="30" as="geometry" />
        </mxCell>
        <mxCell id="QpPn6M7AtIJ3UEPPNxAw-43" value="" style="shape=partialRectangle;connectable=0;fillColor=none;top=0;left=0;bottom=0;right=0;editable=1;overflow=hidden;" vertex="1" parent="QpPn6M7AtIJ3UEPPNxAw-42">
          <mxGeometry width="30" height="30" as="geometry">
            <mxRectangle width="30" height="30" as="alternateBounds" />
          </mxGeometry>
        </mxCell>
        <mxCell id="QpPn6M7AtIJ3UEPPNxAw-44" value="kn_department : varchar(128) : 부서" style="shape=partialRectangle;connectable=0;fillColor=none;top=0;left=0;bottom=0;right=0;align=left;spacingLeft=6;overflow=hidden;" vertex="1" parent="QpPn6M7AtIJ3UEPPNxAw-42">
          <mxGeometry x="30" width="410" height="30" as="geometry">
            <mxRectangle width="410" height="30" as="alternateBounds" />
          </mxGeometry>
        </mxCell>
        <mxCell id="QpPn6M7AtIJ3UEPPNxAw-65" value="" style="shape=partialRectangle;collapsible=0;dropTarget=0;pointerEvents=0;fillColor=none;top=0;left=0;bottom=0;right=0;points=[[0,0.5],[1,0.5]];portConstraint=eastwest;" vertex="1" parent="QpPn6M7AtIJ3UEPPNxAw-11">
          <mxGeometry y="355" width="440" height="30" as="geometry" />
        </mxCell>
        <mxCell id="QpPn6M7AtIJ3UEPPNxAw-66" value="" style="shape=partialRectangle;connectable=0;fillColor=none;top=0;left=0;bottom=0;right=0;editable=1;overflow=hidden;" vertex="1" parent="QpPn6M7AtIJ3UEPPNxAw-65">
          <mxGeometry width="30" height="30" as="geometry">
            <mxRectangle width="30" height="30" as="alternateBounds" />
          </mxGeometry>
        </mxCell>
        <mxCell id="QpPn6M7AtIJ3UEPPNxAw-67" value="kn_state : int : 0:정지(권한해제),1:사용,2:로그인제한(비번5회오류),3:탈퇴, 4:휴면계정" style="shape=partialRectangle;connectable=0;fillColor=none;top=0;left=0;bottom=0;right=0;align=left;spacingLeft=6;overflow=hidden;" vertex="1" parent="QpPn6M7AtIJ3UEPPNxAw-65">
          <mxGeometry x="30" width="410" height="30" as="geometry">
            <mxRectangle width="410" height="30" as="alternateBounds" />
          </mxGeometry>
        </mxCell>
        <mxCell id="QpPn6M7AtIJ3UEPPNxAw-72" value="" style="shape=partialRectangle;collapsible=0;dropTarget=0;pointerEvents=0;fillColor=none;top=0;left=0;bottom=0;right=0;points=[[0,0.5],[1,0.5]];portConstraint=eastwest;" vertex="1" parent="QpPn6M7AtIJ3UEPPNxAw-11">
          <mxGeometry y="385" width="440" height="30" as="geometry" />
        </mxCell>
        <mxCell id="QpPn6M7AtIJ3UEPPNxAw-73" value="" style="shape=partialRectangle;connectable=0;fillColor=none;top=0;left=0;bottom=0;right=0;editable=1;overflow=hidden;" vertex="1" parent="QpPn6M7AtIJ3UEPPNxAw-72">
          <mxGeometry width="30" height="30" as="geometry">
            <mxRectangle width="30" height="30" as="alternateBounds" />
          </mxGeometry>
        </mxCell>
        <mxCell id="QpPn6M7AtIJ3UEPPNxAw-74" value="kn_dormant_date : datetime : 휴면계정 전환일" style="shape=partialRectangle;connectable=0;fillColor=none;top=0;left=0;bottom=0;right=0;align=left;spacingLeft=6;overflow=hidden;" vertex="1" parent="QpPn6M7AtIJ3UEPPNxAw-72">
          <mxGeometry x="30" width="410" height="30" as="geometry">
            <mxRectangle width="410" height="30" as="alternateBounds" />
          </mxGeometry>
        </mxCell>
        <mxCell id="QpPn6M7AtIJ3UEPPNxAw-75" value="" style="shape=partialRectangle;collapsible=0;dropTarget=0;pointerEvents=0;fillColor=none;top=0;left=0;bottom=0;right=0;points=[[0,0.5],[1,0.5]];portConstraint=eastwest;" vertex="1" parent="QpPn6M7AtIJ3UEPPNxAw-11">
          <mxGeometry y="415" width="440" height="30" as="geometry" />
        </mxCell>
        <mxCell id="QpPn6M7AtIJ3UEPPNxAw-76" value="" style="shape=partialRectangle;connectable=0;fillColor=none;top=0;left=0;bottom=0;right=0;editable=1;overflow=hidden;" vertex="1" parent="QpPn6M7AtIJ3UEPPNxAw-75">
          <mxGeometry width="30" height="30" as="geometry">
            <mxRectangle width="30" height="30" as="alternateBounds" />
          </mxGeometry>
        </mxCell>
        <mxCell id="QpPn6M7AtIJ3UEPPNxAw-77" value="kn_expected_delete_date : datetime : 계정삭제예정일" style="shape=partialRectangle;connectable=0;fillColor=none;top=0;left=0;bottom=0;right=0;align=left;spacingLeft=6;overflow=hidden;" vertex="1" parent="QpPn6M7AtIJ3UEPPNxAw-75">
          <mxGeometry x="30" width="410" height="30" as="geometry">
            <mxRectangle width="410" height="30" as="alternateBounds" />
          </mxGeometry>
        </mxCell>
        <mxCell id="QpPn6M7AtIJ3UEPPNxAw-78" value="" style="shape=partialRectangle;collapsible=0;dropTarget=0;pointerEvents=0;fillColor=none;top=0;left=0;bottom=0;right=0;points=[[0,0.5],[1,0.5]];portConstraint=eastwest;" vertex="1" parent="QpPn6M7AtIJ3UEPPNxAw-11">
          <mxGeometry y="445" width="440" height="30" as="geometry" />
        </mxCell>
        <mxCell id="QpPn6M7AtIJ3UEPPNxAw-79" value="" style="shape=partialRectangle;connectable=0;fillColor=none;top=0;left=0;bottom=0;right=0;editable=1;overflow=hidden;" vertex="1" parent="QpPn6M7AtIJ3UEPPNxAw-78">
          <mxGeometry width="30" height="30" as="geometry">
            <mxRectangle width="30" height="30" as="alternateBounds" />
          </mxGeometry>
        </mxCell>
        <mxCell id="QpPn6M7AtIJ3UEPPNxAw-80" value="kn_reason : varchar(256) : 권한해제 사유" style="shape=partialRectangle;connectable=0;fillColor=none;top=0;left=0;bottom=0;right=0;align=left;spacingLeft=6;overflow=hidden;" vertex="1" parent="QpPn6M7AtIJ3UEPPNxAw-78">
          <mxGeometry x="30" width="410" height="30" as="geometry">
            <mxRectangle width="410" height="30" as="alternateBounds" />
          </mxGeometry>
        </mxCell>
        <mxCell id="QpPn6M7AtIJ3UEPPNxAw-81" value="" style="shape=partialRectangle;collapsible=0;dropTarget=0;pointerEvents=0;fillColor=none;top=0;left=0;bottom=0;right=0;points=[[0,0.5],[1,0.5]];portConstraint=eastwest;" vertex="1" parent="QpPn6M7AtIJ3UEPPNxAw-11">
          <mxGeometry y="475" width="440" height="30" as="geometry" />
        </mxCell>
        <mxCell id="QpPn6M7AtIJ3UEPPNxAw-82" value="" style="shape=partialRectangle;connectable=0;fillColor=none;top=0;left=0;bottom=0;right=0;editable=1;overflow=hidden;" vertex="1" parent="QpPn6M7AtIJ3UEPPNxAw-81">
          <mxGeometry width="30" height="30" as="geometry">
            <mxRectangle width="30" height="30" as="alternateBounds" />
          </mxGeometry>
        </mxCell>
        <mxCell id="QpPn6M7AtIJ3UEPPNxAw-83" value="kn_ip_addr : varchar(64) : 최근 접속 ip 주소" style="shape=partialRectangle;connectable=0;fillColor=none;top=0;left=0;bottom=0;right=0;align=left;spacingLeft=6;overflow=hidden;" vertex="1" parent="QpPn6M7AtIJ3UEPPNxAw-81">
          <mxGeometry x="30" width="410" height="30" as="geometry">
            <mxRectangle width="410" height="30" as="alternateBounds" />
          </mxGeometry>
        </mxCell>
        <mxCell id="QpPn6M7AtIJ3UEPPNxAw-84" value="" style="shape=partialRectangle;collapsible=0;dropTarget=0;pointerEvents=0;fillColor=none;top=0;left=0;bottom=0;right=0;points=[[0,0.5],[1,0.5]];portConstraint=eastwest;" vertex="1" parent="QpPn6M7AtIJ3UEPPNxAw-11">
          <mxGeometry y="505" width="440" height="30" as="geometry" />
        </mxCell>
        <mxCell id="QpPn6M7AtIJ3UEPPNxAw-85" value="" style="shape=partialRectangle;connectable=0;fillColor=none;top=0;left=0;bottom=0;right=0;editable=1;overflow=hidden;" vertex="1" parent="QpPn6M7AtIJ3UEPPNxAw-84">
          <mxGeometry width="30" height="30" as="geometry">
            <mxRectangle width="30" height="30" as="alternateBounds" />
          </mxGeometry>
        </mxCell>
        <mxCell id="QpPn6M7AtIJ3UEPPNxAw-86" value="kn_approval_state : int : 승인상태(1:승인대기, 2:승인완료, 3:승인보류)" style="shape=partialRectangle;connectable=0;fillColor=none;top=0;left=0;bottom=0;right=0;align=left;spacingLeft=6;overflow=hidden;" vertex="1" parent="QpPn6M7AtIJ3UEPPNxAw-84">
          <mxGeometry x="30" width="410" height="30" as="geometry">
            <mxRectangle width="410" height="30" as="alternateBounds" />
          </mxGeometry>
        </mxCell>
        <mxCell id="QpPn6M7AtIJ3UEPPNxAw-87" value="" style="shape=partialRectangle;collapsible=0;dropTarget=0;pointerEvents=0;fillColor=none;top=0;left=0;bottom=0;right=0;points=[[0,0.5],[1,0.5]];portConstraint=eastwest;" vertex="1" parent="QpPn6M7AtIJ3UEPPNxAw-11">
          <mxGeometry y="535" width="440" height="30" as="geometry" />
        </mxCell>
        <mxCell id="QpPn6M7AtIJ3UEPPNxAw-88" value="" style="shape=partialRectangle;connectable=0;fillColor=none;top=0;left=0;bottom=0;right=0;editable=1;overflow=hidden;" vertex="1" parent="QpPn6M7AtIJ3UEPPNxAw-87">
          <mxGeometry width="30" height="30" as="geometry">
            <mxRectangle width="30" height="30" as="alternateBounds" />
          </mxGeometry>
        </mxCell>
        <mxCell id="QpPn6M7AtIJ3UEPPNxAw-89" value="kn_approval_date : datetime : 관리자승인일시,반려일시" style="shape=partialRectangle;connectable=0;fillColor=none;top=0;left=0;bottom=0;right=0;align=left;spacingLeft=6;overflow=hidden;" vertex="1" parent="QpPn6M7AtIJ3UEPPNxAw-87">
          <mxGeometry x="30" width="410" height="30" as="geometry">
            <mxRectangle width="410" height="30" as="alternateBounds" />
          </mxGeometry>
        </mxCell>
        <mxCell id="QpPn6M7AtIJ3UEPPNxAw-90" value="" style="shape=partialRectangle;collapsible=0;dropTarget=0;pointerEvents=0;fillColor=none;top=0;left=0;bottom=0;right=0;points=[[0,0.5],[1,0.5]];portConstraint=eastwest;" vertex="1" parent="QpPn6M7AtIJ3UEPPNxAw-11">
          <mxGeometry y="565" width="440" height="30" as="geometry" />
        </mxCell>
        <mxCell id="QpPn6M7AtIJ3UEPPNxAw-91" value="" style="shape=partialRectangle;connectable=0;fillColor=none;top=0;left=0;bottom=0;right=0;editable=1;overflow=hidden;" vertex="1" parent="QpPn6M7AtIJ3UEPPNxAw-90">
          <mxGeometry width="30" height="30" as="geometry">
            <mxRectangle width="30" height="30" as="alternateBounds" />
          </mxGeometry>
        </mxCell>
        <mxCell id="QpPn6M7AtIJ3UEPPNxAw-92" value="kn_approval_return_reason : varchar(512) : 관리자 반려 사유" style="shape=partialRectangle;connectable=0;fillColor=none;top=0;left=0;bottom=0;right=0;align=left;spacingLeft=6;overflow=hidden;" vertex="1" parent="QpPn6M7AtIJ3UEPPNxAw-90">
          <mxGeometry x="30" width="410" height="30" as="geometry">
            <mxRectangle width="410" height="30" as="alternateBounds" />
          </mxGeometry>
        </mxCell>
        <mxCell id="QpPn6M7AtIJ3UEPPNxAw-93" value="" style="shape=partialRectangle;collapsible=0;dropTarget=0;pointerEvents=0;fillColor=none;top=0;left=0;bottom=0;right=0;points=[[0,0.5],[1,0.5]];portConstraint=eastwest;" vertex="1" parent="QpPn6M7AtIJ3UEPPNxAw-11">
          <mxGeometry y="595" width="440" height="30" as="geometry" />
        </mxCell>
        <mxCell id="QpPn6M7AtIJ3UEPPNxAw-94" value="" style="shape=partialRectangle;connectable=0;fillColor=none;top=0;left=0;bottom=0;right=0;editable=1;overflow=hidden;" vertex="1" parent="QpPn6M7AtIJ3UEPPNxAw-93">
          <mxGeometry width="30" height="30" as="geometry">
            <mxRectangle width="30" height="30" as="alternateBounds" />
          </mxGeometry>
        </mxCell>
        <mxCell id="QpPn6M7AtIJ3UEPPNxAw-95" value="kn_approval_name : varchar(64) : 승인자(반려자)" style="shape=partialRectangle;connectable=0;fillColor=none;top=0;left=0;bottom=0;right=0;align=left;spacingLeft=6;overflow=hidden;" vertex="1" parent="QpPn6M7AtIJ3UEPPNxAw-93">
          <mxGeometry x="30" width="410" height="30" as="geometry">
            <mxRectangle width="410" height="30" as="alternateBounds" />
          </mxGeometry>
        </mxCell>
        <mxCell id="QpPn6M7AtIJ3UEPPNxAw-96" value="" style="shape=partialRectangle;collapsible=0;dropTarget=0;pointerEvents=0;fillColor=none;top=0;left=0;bottom=0;right=0;points=[[0,0.5],[1,0.5]];portConstraint=eastwest;" vertex="1" parent="QpPn6M7AtIJ3UEPPNxAw-11">
          <mxGeometry y="625" width="440" height="30" as="geometry" />
        </mxCell>
        <mxCell id="QpPn6M7AtIJ3UEPPNxAw-97" value="" style="shape=partialRectangle;connectable=0;fillColor=none;top=0;left=0;bottom=0;right=0;editable=1;overflow=hidden;" vertex="1" parent="QpPn6M7AtIJ3UEPPNxAw-96">
          <mxGeometry width="30" height="30" as="geometry">
            <mxRectangle width="30" height="30" as="alternateBounds" />
          </mxGeometry>
        </mxCell>
        <mxCell id="QpPn6M7AtIJ3UEPPNxAw-98" value="kn_withdrawal_reason_type : int : 탈퇴사유선택(1:계정변경, 2:서비스이용불만,3:사용하지않음,4:기타)" style="shape=partialRectangle;connectable=0;fillColor=none;top=0;left=0;bottom=0;right=0;align=left;spacingLeft=6;overflow=hidden;" vertex="1" parent="QpPn6M7AtIJ3UEPPNxAw-96">
          <mxGeometry x="30" width="410" height="30" as="geometry">
            <mxRectangle width="410" height="30" as="alternateBounds" />
          </mxGeometry>
        </mxCell>
        <mxCell id="QpPn6M7AtIJ3UEPPNxAw-99" value="" style="shape=partialRectangle;collapsible=0;dropTarget=0;pointerEvents=0;fillColor=none;top=0;left=0;bottom=0;right=0;points=[[0,0.5],[1,0.5]];portConstraint=eastwest;" vertex="1" parent="QpPn6M7AtIJ3UEPPNxAw-11">
          <mxGeometry y="655" width="440" height="30" as="geometry" />
        </mxCell>
        <mxCell id="QpPn6M7AtIJ3UEPPNxAw-100" value="" style="shape=partialRectangle;connectable=0;fillColor=none;top=0;left=0;bottom=0;right=0;editable=1;overflow=hidden;" vertex="1" parent="QpPn6M7AtIJ3UEPPNxAw-99">
          <mxGeometry width="30" height="30" as="geometry">
            <mxRectangle width="30" height="30" as="alternateBounds" />
          </mxGeometry>
        </mxCell>
        <mxCell id="QpPn6M7AtIJ3UEPPNxAw-101" value="kn_withdrawal_reason : varchar(256) : 탈퇴사유" style="shape=partialRectangle;connectable=0;fillColor=none;top=0;left=0;bottom=0;right=0;align=left;spacingLeft=6;overflow=hidden;" vertex="1" parent="QpPn6M7AtIJ3UEPPNxAw-99">
          <mxGeometry x="30" width="410" height="30" as="geometry">
            <mxRectangle width="410" height="30" as="alternateBounds" />
          </mxGeometry>
        </mxCell>
        <mxCell id="QpPn6M7AtIJ3UEPPNxAw-102" value="" style="shape=partialRectangle;collapsible=0;dropTarget=0;pointerEvents=0;fillColor=none;top=0;left=0;bottom=0;right=0;points=[[0,0.5],[1,0.5]];portConstraint=eastwest;" vertex="1" parent="QpPn6M7AtIJ3UEPPNxAw-11">
          <mxGeometry y="685" width="440" height="30" as="geometry" />
        </mxCell>
        <mxCell id="QpPn6M7AtIJ3UEPPNxAw-103" value="" style="shape=partialRectangle;connectable=0;fillColor=none;top=0;left=0;bottom=0;right=0;editable=1;overflow=hidden;" vertex="1" parent="QpPn6M7AtIJ3UEPPNxAw-102">
          <mxGeometry width="30" height="30" as="geometry">
            <mxRectangle width="30" height="30" as="alternateBounds" />
          </mxGeometry>
        </mxCell>
        <mxCell id="QpPn6M7AtIJ3UEPPNxAw-104" value="kn_withdrawal_date : datetime : 탈퇴일시" style="shape=partialRectangle;connectable=0;fillColor=none;top=0;left=0;bottom=0;right=0;align=left;spacingLeft=6;overflow=hidden;" vertex="1" parent="QpPn6M7AtIJ3UEPPNxAw-102">
          <mxGeometry x="30" width="410" height="30" as="geometry">
            <mxRectangle width="410" height="30" as="alternateBounds" />
          </mxGeometry>
        </mxCell>
        <mxCell id="QpPn6M7AtIJ3UEPPNxAw-105" value="" style="shape=partialRectangle;collapsible=0;dropTarget=0;pointerEvents=0;fillColor=none;top=0;left=0;bottom=0;right=0;points=[[0,0.5],[1,0.5]];portConstraint=eastwest;" vertex="1" parent="QpPn6M7AtIJ3UEPPNxAw-11">
          <mxGeometry y="715" width="440" height="30" as="geometry" />
        </mxCell>
        <mxCell id="QpPn6M7AtIJ3UEPPNxAw-106" value="" style="shape=partialRectangle;connectable=0;fillColor=none;top=0;left=0;bottom=0;right=0;editable=1;overflow=hidden;" vertex="1" parent="QpPn6M7AtIJ3UEPPNxAw-105">
          <mxGeometry width="30" height="30" as="geometry">
            <mxRectangle width="30" height="30" as="alternateBounds" />
          </mxGeometry>
        </mxCell>
        <mxCell id="QpPn6M7AtIJ3UEPPNxAw-107" value="kn_last_login_date : datetime : 최근접속일시(휴면계정전환에 필요)" style="shape=partialRectangle;connectable=0;fillColor=none;top=0;left=0;bottom=0;right=0;align=left;spacingLeft=6;overflow=hidden;" vertex="1" parent="QpPn6M7AtIJ3UEPPNxAw-105">
          <mxGeometry x="30" width="410" height="30" as="geometry">
            <mxRectangle width="410" height="30" as="alternateBounds" />
          </mxGeometry>
        </mxCell>
        <mxCell id="QpPn6M7AtIJ3UEPPNxAw-108" value="" style="shape=partialRectangle;collapsible=0;dropTarget=0;pointerEvents=0;fillColor=none;top=0;left=0;bottom=0;right=0;points=[[0,0.5],[1,0.5]];portConstraint=eastwest;" vertex="1" parent="QpPn6M7AtIJ3UEPPNxAw-11">
          <mxGeometry y="745" width="440" height="30" as="geometry" />
        </mxCell>
        <mxCell id="QpPn6M7AtIJ3UEPPNxAw-109" value="" style="shape=partialRectangle;connectable=0;fillColor=none;top=0;left=0;bottom=0;right=0;editable=1;overflow=hidden;" vertex="1" parent="QpPn6M7AtIJ3UEPPNxAw-108">
          <mxGeometry width="30" height="30" as="geometry">
            <mxRectangle width="30" height="30" as="alternateBounds" />
          </mxGeometry>
        </mxCell>
        <mxCell id="QpPn6M7AtIJ3UEPPNxAw-110" value="kn_is_email_auth : varchar(1) : 이메일인증여부" style="shape=partialRectangle;connectable=0;fillColor=none;top=0;left=0;bottom=0;right=0;align=left;spacingLeft=6;overflow=hidden;" vertex="1" parent="QpPn6M7AtIJ3UEPPNxAw-108">
          <mxGeometry x="30" width="410" height="30" as="geometry">
            <mxRectangle width="410" height="30" as="alternateBounds" />
          </mxGeometry>
        </mxCell>
        <mxCell id="QpPn6M7AtIJ3UEPPNxAw-111" value="" style="shape=partialRectangle;collapsible=0;dropTarget=0;pointerEvents=0;fillColor=none;top=0;left=0;bottom=0;right=0;points=[[0,0.5],[1,0.5]];portConstraint=eastwest;" vertex="1" parent="QpPn6M7AtIJ3UEPPNxAw-11">
          <mxGeometry y="775" width="440" height="30" as="geometry" />
        </mxCell>
        <mxCell id="QpPn6M7AtIJ3UEPPNxAw-112" value="" style="shape=partialRectangle;connectable=0;fillColor=none;top=0;left=0;bottom=0;right=0;editable=1;overflow=hidden;" vertex="1" parent="QpPn6M7AtIJ3UEPPNxAw-111">
          <mxGeometry width="30" height="30" as="geometry">
            <mxRectangle width="30" height="30" as="alternateBounds" />
          </mxGeometry>
        </mxCell>
        <mxCell id="QpPn6M7AtIJ3UEPPNxAw-113" value="kn_email_auth_number : varchar(256) : 이메일인증번호" style="shape=partialRectangle;connectable=0;fillColor=none;top=0;left=0;bottom=0;right=0;align=left;spacingLeft=6;overflow=hidden;" vertex="1" parent="QpPn6M7AtIJ3UEPPNxAw-111">
          <mxGeometry x="30" width="410" height="30" as="geometry">
            <mxRectangle width="410" height="30" as="alternateBounds" />
          </mxGeometry>
        </mxCell>
        <mxCell id="QpPn6M7AtIJ3UEPPNxAw-114" value="" style="shape=partialRectangle;collapsible=0;dropTarget=0;pointerEvents=0;fillColor=none;top=0;left=0;bottom=0;right=0;points=[[0,0.5],[1,0.5]];portConstraint=eastwest;" vertex="1" parent="QpPn6M7AtIJ3UEPPNxAw-11">
          <mxGeometry y="805" width="440" height="30" as="geometry" />
        </mxCell>
        <mxCell id="QpPn6M7AtIJ3UEPPNxAw-115" value="" style="shape=partialRectangle;connectable=0;fillColor=none;top=0;left=0;bottom=0;right=0;editable=1;overflow=hidden;" vertex="1" parent="QpPn6M7AtIJ3UEPPNxAw-114">
          <mxGeometry width="30" height="30" as="geometry">
            <mxRectangle width="30" height="30" as="alternateBounds" />
          </mxGeometry>
        </mxCell>
        <mxCell id="QpPn6M7AtIJ3UEPPNxAw-116" value="kn_pwd_auth_number : varchar(256) : 비밀번호 설정 시 인증번호" style="shape=partialRectangle;connectable=0;fillColor=none;top=0;left=0;bottom=0;right=0;align=left;spacingLeft=6;overflow=hidden;" vertex="1" parent="QpPn6M7AtIJ3UEPPNxAw-114">
          <mxGeometry x="30" width="410" height="30" as="geometry">
            <mxRectangle width="410" height="30" as="alternateBounds" />
          </mxGeometry>
        </mxCell>
        <mxCell id="QpPn6M7AtIJ3UEPPNxAw-117" value="" style="shape=partialRectangle;collapsible=0;dropTarget=0;pointerEvents=0;fillColor=none;top=0;left=0;bottom=0;right=0;points=[[0,0.5],[1,0.5]];portConstraint=eastwest;" vertex="1" parent="QpPn6M7AtIJ3UEPPNxAw-11">
          <mxGeometry y="835" width="440" height="30" as="geometry" />
        </mxCell>
        <mxCell id="QpPn6M7AtIJ3UEPPNxAw-118" value="" style="shape=partialRectangle;connectable=0;fillColor=none;top=0;left=0;bottom=0;right=0;editable=1;overflow=hidden;" vertex="1" parent="QpPn6M7AtIJ3UEPPNxAw-117">
          <mxGeometry width="30" height="30" as="geometry">
            <mxRectangle width="30" height="30" as="alternateBounds" />
          </mxGeometry>
        </mxCell>
        <mxCell id="QpPn6M7AtIJ3UEPPNxAw-119" value="kn_auth_start_date : datetime : 인증시작시간" style="shape=partialRectangle;connectable=0;fillColor=none;top=0;left=0;bottom=0;right=0;align=left;spacingLeft=6;overflow=hidden;" vertex="1" parent="QpPn6M7AtIJ3UEPPNxAw-117">
          <mxGeometry x="30" width="410" height="30" as="geometry">
            <mxRectangle width="410" height="30" as="alternateBounds" />
          </mxGeometry>
        </mxCell>
        <mxCell id="QpPn6M7AtIJ3UEPPNxAw-120" value="" style="shape=partialRectangle;collapsible=0;dropTarget=0;pointerEvents=0;fillColor=none;top=0;left=0;bottom=0;right=0;points=[[0,0.5],[1,0.5]];portConstraint=eastwest;" vertex="1" parent="QpPn6M7AtIJ3UEPPNxAw-11">
          <mxGeometry y="865" width="440" height="30" as="geometry" />
        </mxCell>
        <mxCell id="QpPn6M7AtIJ3UEPPNxAw-121" value="" style="shape=partialRectangle;connectable=0;fillColor=none;top=0;left=0;bottom=0;right=0;editable=1;overflow=hidden;" vertex="1" parent="QpPn6M7AtIJ3UEPPNxAw-120">
          <mxGeometry width="30" height="30" as="geometry">
            <mxRectangle width="30" height="30" as="alternateBounds" />
          </mxGeometry>
        </mxCell>
        <mxCell id="QpPn6M7AtIJ3UEPPNxAw-122" value="kn_auth_end_date : datetime : 인증종료시간" style="shape=partialRectangle;connectable=0;fillColor=none;top=0;left=0;bottom=0;right=0;align=left;spacingLeft=6;overflow=hidden;" vertex="1" parent="QpPn6M7AtIJ3UEPPNxAw-120">
          <mxGeometry x="30" width="410" height="30" as="geometry">
            <mxRectangle width="410" height="30" as="alternateBounds" />
          </mxGeometry>
        </mxCell>
        <mxCell id="QpPn6M7AtIJ3UEPPNxAw-123" value="" style="shape=partialRectangle;collapsible=0;dropTarget=0;pointerEvents=0;fillColor=none;top=0;left=0;bottom=0;right=0;points=[[0,0.5],[1,0.5]];portConstraint=eastwest;" vertex="1" parent="QpPn6M7AtIJ3UEPPNxAw-11">
          <mxGeometry y="895" width="440" height="30" as="geometry" />
        </mxCell>
        <mxCell id="QpPn6M7AtIJ3UEPPNxAw-124" value="" style="shape=partialRectangle;connectable=0;fillColor=none;top=0;left=0;bottom=0;right=0;editable=1;overflow=hidden;" vertex="1" parent="QpPn6M7AtIJ3UEPPNxAw-123">
          <mxGeometry width="30" height="30" as="geometry">
            <mxRectangle width="30" height="30" as="alternateBounds" />
          </mxGeometry>
        </mxCell>
        <mxCell id="QpPn6M7AtIJ3UEPPNxAw-125" value="kn_otp_key : varchar(128) : 구글 OTP에 사용될 KEY" style="shape=partialRectangle;connectable=0;fillColor=none;top=0;left=0;bottom=0;right=0;align=left;spacingLeft=6;overflow=hidden;" vertex="1" parent="QpPn6M7AtIJ3UEPPNxAw-123">
          <mxGeometry x="30" width="410" height="30" as="geometry">
            <mxRectangle width="410" height="30" as="alternateBounds" />
          </mxGeometry>
        </mxCell>
        <mxCell id="QpPn6M7AtIJ3UEPPNxAw-126" value="" style="shape=partialRectangle;collapsible=0;dropTarget=0;pointerEvents=0;fillColor=none;top=0;left=0;bottom=0;right=0;points=[[0,0.5],[1,0.5]];portConstraint=eastwest;" vertex="1" parent="QpPn6M7AtIJ3UEPPNxAw-11">
          <mxGeometry y="925" width="440" height="30" as="geometry" />
        </mxCell>
        <mxCell id="QpPn6M7AtIJ3UEPPNxAw-127" value="" style="shape=partialRectangle;connectable=0;fillColor=none;top=0;left=0;bottom=0;right=0;editable=1;overflow=hidden;" vertex="1" parent="QpPn6M7AtIJ3UEPPNxAw-126">
          <mxGeometry width="30" height="30" as="geometry">
            <mxRectangle width="30" height="30" as="alternateBounds" />
          </mxGeometry>
        </mxCell>
        <mxCell id="QpPn6M7AtIJ3UEPPNxAw-128" value="kn_is_login_auth : varchar(1) : GOOGLE 인증여부" style="shape=partialRectangle;connectable=0;fillColor=none;top=0;left=0;bottom=0;right=0;align=left;spacingLeft=6;overflow=hidden;" vertex="1" parent="QpPn6M7AtIJ3UEPPNxAw-126">
          <mxGeometry x="30" width="410" height="30" as="geometry">
            <mxRectangle width="410" height="30" as="alternateBounds" />
          </mxGeometry>
        </mxCell>
        <mxCell id="QpPn6M7AtIJ3UEPPNxAw-129" value="" style="shape=partialRectangle;collapsible=0;dropTarget=0;pointerEvents=0;fillColor=none;top=0;left=0;bottom=0;right=0;points=[[0,0.5],[1,0.5]];portConstraint=eastwest;" vertex="1" parent="QpPn6M7AtIJ3UEPPNxAw-11">
          <mxGeometry y="955" width="440" height="30" as="geometry" />
        </mxCell>
        <mxCell id="QpPn6M7AtIJ3UEPPNxAw-130" value="" style="shape=partialRectangle;connectable=0;fillColor=none;top=0;left=0;bottom=0;right=0;editable=1;overflow=hidden;" vertex="1" parent="QpPn6M7AtIJ3UEPPNxAw-129">
          <mxGeometry width="30" height="30" as="geometry">
            <mxRectangle width="30" height="30" as="alternateBounds" />
          </mxGeometry>
        </mxCell>
        <mxCell id="QpPn6M7AtIJ3UEPPNxAw-131" value="kn_role_code : varchar(32) : 권한(코코넛직원:ROLE_SYSTEM, 대표관리자:ROLE_MASTER, 최고관리자:ROLE_ADMIN, 일반관리자:ROLE_USER, 게스트:ROLE_GUEST)" style="shape=partialRectangle;connectable=0;fillColor=none;top=0;left=0;bottom=0;right=0;align=left;spacingLeft=6;overflow=hidden;" vertex="1" parent="QpPn6M7AtIJ3UEPPNxAw-129">
          <mxGeometry x="30" width="410" height="30" as="geometry">
            <mxRectangle width="410" height="30" as="alternateBounds" />
          </mxGeometry>
        </mxCell>
        <mxCell id="QpPn6M7AtIJ3UEPPNxAw-132" value="" style="shape=partialRectangle;collapsible=0;dropTarget=0;pointerEvents=0;fillColor=none;top=0;left=0;bottom=0;right=0;points=[[0,0.5],[1,0.5]];portConstraint=eastwest;" vertex="1" parent="QpPn6M7AtIJ3UEPPNxAw-11">
          <mxGeometry y="985" width="440" height="30" as="geometry" />
        </mxCell>
        <mxCell id="QpPn6M7AtIJ3UEPPNxAw-133" value="" style="shape=partialRectangle;connectable=0;fillColor=none;top=0;left=0;bottom=0;right=0;editable=1;overflow=hidden;" vertex="1" parent="QpPn6M7AtIJ3UEPPNxAw-132">
          <mxGeometry width="30" height="30" as="geometry">
            <mxRectangle width="30" height="30" as="alternateBounds" />
          </mxGeometry>
        </mxCell>
        <mxCell id="QpPn6M7AtIJ3UEPPNxAw-134" value="insert_email : varchar(320) : 등록자 이메일" style="shape=partialRectangle;connectable=0;fillColor=none;top=0;left=0;bottom=0;right=0;align=left;spacingLeft=6;overflow=hidden;" vertex="1" parent="QpPn6M7AtIJ3UEPPNxAw-132">
          <mxGeometry x="30" width="410" height="30" as="geometry">
            <mxRectangle width="410" height="30" as="alternateBounds" />
          </mxGeometry>
        </mxCell>
        <mxCell id="QpPn6M7AtIJ3UEPPNxAw-135" value="" style="shape=partialRectangle;collapsible=0;dropTarget=0;pointerEvents=0;fillColor=none;top=0;left=0;bottom=0;right=0;points=[[0,0.5],[1,0.5]];portConstraint=eastwest;" vertex="1" parent="QpPn6M7AtIJ3UEPPNxAw-11">
          <mxGeometry y="1015" width="440" height="30" as="geometry" />
        </mxCell>
        <mxCell id="QpPn6M7AtIJ3UEPPNxAw-136" value="" style="shape=partialRectangle;connectable=0;fillColor=none;top=0;left=0;bottom=0;right=0;editable=1;overflow=hidden;" vertex="1" parent="QpPn6M7AtIJ3UEPPNxAw-135">
          <mxGeometry width="30" height="30" as="geometry">
            <mxRectangle width="30" height="30" as="alternateBounds" />
          </mxGeometry>
        </mxCell>
        <mxCell id="QpPn6M7AtIJ3UEPPNxAw-137" value="insert_date : datetime : 0:정지(권한해제),1:사용,2:로그인제한(비번5회오류),3:탈퇴, 4:휴면계정" style="shape=partialRectangle;connectable=0;fillColor=none;top=0;left=0;bottom=0;right=0;align=left;spacingLeft=6;overflow=hidden;" vertex="1" parent="QpPn6M7AtIJ3UEPPNxAw-135">
          <mxGeometry x="30" width="410" height="30" as="geometry">
            <mxRectangle width="410" height="30" as="alternateBounds" />
          </mxGeometry>
        </mxCell>
        <mxCell id="QpPn6M7AtIJ3UEPPNxAw-138" value="" style="shape=partialRectangle;collapsible=0;dropTarget=0;pointerEvents=0;fillColor=none;top=0;left=0;bottom=0;right=0;points=[[0,0.5],[1,0.5]];portConstraint=eastwest;" vertex="1" parent="QpPn6M7AtIJ3UEPPNxAw-11">
          <mxGeometry y="1045" width="440" height="30" as="geometry" />
        </mxCell>
        <mxCell id="QpPn6M7AtIJ3UEPPNxAw-139" value="" style="shape=partialRectangle;connectable=0;fillColor=none;top=0;left=0;bottom=0;right=0;editable=1;overflow=hidden;" vertex="1" parent="QpPn6M7AtIJ3UEPPNxAw-138">
          <mxGeometry width="30" height="30" as="geometry">
            <mxRectangle width="30" height="30" as="alternateBounds" />
          </mxGeometry>
        </mxCell>
        <mxCell id="QpPn6M7AtIJ3UEPPNxAw-140" value="modify_id : bigint : 수정자 id" style="shape=partialRectangle;connectable=0;fillColor=none;top=0;left=0;bottom=0;right=0;align=left;spacingLeft=6;overflow=hidden;" vertex="1" parent="QpPn6M7AtIJ3UEPPNxAw-138">
          <mxGeometry x="30" width="410" height="30" as="geometry">
            <mxRectangle width="410" height="30" as="alternateBounds" />
          </mxGeometry>
        </mxCell>
        <mxCell id="QpPn6M7AtIJ3UEPPNxAw-141" value="" style="shape=partialRectangle;collapsible=0;dropTarget=0;pointerEvents=0;fillColor=none;top=0;left=0;bottom=0;right=0;points=[[0,0.5],[1,0.5]];portConstraint=eastwest;" vertex="1" parent="QpPn6M7AtIJ3UEPPNxAw-11">
          <mxGeometry y="1075" width="440" height="30" as="geometry" />
        </mxCell>
        <mxCell id="QpPn6M7AtIJ3UEPPNxAw-142" value="" style="shape=partialRectangle;connectable=0;fillColor=none;top=0;left=0;bottom=0;right=0;editable=1;overflow=hidden;" vertex="1" parent="QpPn6M7AtIJ3UEPPNxAw-141">
          <mxGeometry width="30" height="30" as="geometry">
            <mxRectangle width="30" height="30" as="alternateBounds" />
          </mxGeometry>
        </mxCell>
        <mxCell id="QpPn6M7AtIJ3UEPPNxAw-143" value="modify_email : varchar(320) : 수정자 이메일" style="shape=partialRectangle;connectable=0;fillColor=none;top=0;left=0;bottom=0;right=0;align=left;spacingLeft=6;overflow=hidden;" vertex="1" parent="QpPn6M7AtIJ3UEPPNxAw-141">
          <mxGeometry x="30" width="410" height="30" as="geometry">
            <mxRectangle width="410" height="30" as="alternateBounds" />
          </mxGeometry>
        </mxCell>
        <mxCell id="QpPn6M7AtIJ3UEPPNxAw-144" value="" style="shape=partialRectangle;collapsible=0;dropTarget=0;pointerEvents=0;fillColor=none;top=0;left=0;bottom=0;right=0;points=[[0,0.5],[1,0.5]];portConstraint=eastwest;" vertex="1" parent="QpPn6M7AtIJ3UEPPNxAw-11">
          <mxGeometry y="1105" width="440" height="30" as="geometry" />
        </mxCell>
        <mxCell id="QpPn6M7AtIJ3UEPPNxAw-145" value="" style="shape=partialRectangle;connectable=0;fillColor=none;top=0;left=0;bottom=0;right=0;editable=1;overflow=hidden;" vertex="1" parent="QpPn6M7AtIJ3UEPPNxAw-144">
          <mxGeometry width="30" height="30" as="geometry">
            <mxRectangle width="30" height="30" as="alternateBounds" />
          </mxGeometry>
        </mxCell>
        <mxCell id="QpPn6M7AtIJ3UEPPNxAw-146" value="kn_role_code : datetime : 수정날짜" style="shape=partialRectangle;connectable=0;fillColor=none;top=0;left=0;bottom=0;right=0;align=left;spacingLeft=6;overflow=hidden;" vertex="1" parent="QpPn6M7AtIJ3UEPPNxAw-144">
          <mxGeometry x="30" width="410" height="30" as="geometry">
            <mxRectangle width="410" height="30" as="alternateBounds" />
          </mxGeometry>
        </mxCell>
        <mxCell id="QpPn6M7AtIJ3UEPPNxAw-45" value="" style="edgeStyle=orthogonalEdgeStyle;rounded=0;orthogonalLoop=1;jettySize=auto;html=1;" edge="1" parent="1" source="QpPn6M7AtIJ3UEPPNxAw-15" target="yN72wSK38ZJyTHiqPAD0-449">
          <mxGeometry relative="1" as="geometry" />
        </mxCell>
        <mxCell id="QpPn6M7AtIJ3UEPPNxAw-61" value="&lt;font style=&quot;font-size: 24px;&quot;&gt;1:N 관계&lt;/font&gt;" style="rounded=0;whiteSpace=wrap;html=1;" vertex="1" parent="1">
          <mxGeometry x="-2275" y="-2360" width="100" height="40" as="geometry" />
        </mxCell>
        <mxCell id="QpPn6M7AtIJ3UEPPNxAw-63" value="" style="edgeStyle=entityRelationEdgeStyle;fontSize=12;html=1;endArrow=ERzeroToMany;endFill=1;rounded=0;" edge="1" parent="1">
          <mxGeometry width="100" height="100" relative="1" as="geometry">
            <mxPoint x="-2295" y="-2310" as="sourcePoint" />
            <mxPoint x="-2155" y="-2310" as="targetPoint" />
          </mxGeometry>
        </mxCell>
        <mxCell id="QpPn6M7AtIJ3UEPPNxAw-55" value="" style="endArrow=classic;html=1;rounded=0;" edge="1" parent="1">
          <mxGeometry width="50" height="50" relative="1" as="geometry">
            <mxPoint x="-2460" y="-2310" as="sourcePoint" />
            <mxPoint x="-2320" y="-2310" as="targetPoint" />
          </mxGeometry>
        </mxCell>
        <mxCell id="QpPn6M7AtIJ3UEPPNxAw-56" value="&lt;font style=&quot;font-size: 24px;&quot;&gt;1:1 관계&lt;/font&gt;" style="rounded=0;whiteSpace=wrap;html=1;container=0;" vertex="1" parent="1">
          <mxGeometry x="-2440" y="-2360" width="100" height="40" as="geometry" />
        </mxCell>
        <mxCell id="QpPn6M7AtIJ3UEPPNxAw-147" value="kn_company(기업 테이블)" style="shape=table;startSize=30;container=1;collapsible=1;childLayout=tableLayout;fixedRows=1;rowLines=0;fontStyle=1;align=center;resizeLast=1;" vertex="1" parent="1">
          <mxGeometry x="-2460" y="-2155" width="450" height="835" as="geometry">
            <mxRectangle x="20" y="20" width="290" height="30" as="alternateBounds" />
          </mxGeometry>
        </mxCell>
        <mxCell id="QpPn6M7AtIJ3UEPPNxAw-148" value="" style="shape=partialRectangle;collapsible=0;dropTarget=0;pointerEvents=0;fillColor=none;top=0;left=0;bottom=1;right=0;points=[[0,0.5],[1,0.5]];portConstraint=eastwest;" vertex="1" parent="QpPn6M7AtIJ3UEPPNxAw-147">
          <mxGeometry y="30" width="450" height="30" as="geometry" />
        </mxCell>
        <mxCell id="QpPn6M7AtIJ3UEPPNxAw-149" value="PK" style="shape=partialRectangle;connectable=0;fillColor=none;top=0;left=0;bottom=0;right=0;fontStyle=1;overflow=hidden;" vertex="1" parent="QpPn6M7AtIJ3UEPPNxAw-148">
          <mxGeometry width="30" height="30" as="geometry">
            <mxRectangle width="30" height="30" as="alternateBounds" />
          </mxGeometry>
        </mxCell>
        <mxCell id="QpPn6M7AtIJ3UEPPNxAw-150" value="company_id : bigint : autoingrement" style="shape=partialRectangle;connectable=0;fillColor=none;top=0;left=0;bottom=0;right=0;align=left;spacingLeft=6;fontStyle=5;overflow=hidden;" vertex="1" parent="QpPn6M7AtIJ3UEPPNxAw-148">
          <mxGeometry x="30" width="420" height="30" as="geometry">
            <mxRectangle width="420" height="30" as="alternateBounds" />
          </mxGeometry>
        </mxCell>
        <mxCell id="QpPn6M7AtIJ3UEPPNxAw-151" value="" style="shape=partialRectangle;collapsible=0;dropTarget=0;pointerEvents=0;fillColor=none;top=0;left=0;bottom=0;right=0;points=[[0,0.5],[1,0.5]];portConstraint=eastwest;" vertex="1" parent="QpPn6M7AtIJ3UEPPNxAw-147">
          <mxGeometry y="60" width="450" height="30" as="geometry" />
        </mxCell>
        <mxCell id="QpPn6M7AtIJ3UEPPNxAw-152" value="" style="shape=partialRectangle;connectable=0;fillColor=none;top=0;left=0;bottom=0;right=0;editable=1;overflow=hidden;" vertex="1" parent="QpPn6M7AtIJ3UEPPNxAw-151">
          <mxGeometry width="30" height="30" as="geometry">
            <mxRectangle width="30" height="30" as="alternateBounds" />
          </mxGeometry>
        </mxCell>
        <mxCell id="QpPn6M7AtIJ3UEPPNxAw-153" value="cp_code : varchar(20) : 사업자코드 : unique" style="shape=partialRectangle;connectable=0;fillColor=none;top=0;left=0;bottom=0;right=0;align=left;spacingLeft=6;overflow=hidden;" vertex="1" parent="QpPn6M7AtIJ3UEPPNxAw-151">
          <mxGeometry x="30" width="420" height="30" as="geometry">
            <mxRectangle width="420" height="30" as="alternateBounds" />
          </mxGeometry>
        </mxCell>
        <mxCell id="QpPn6M7AtIJ3UEPPNxAw-154" value="" style="shape=partialRectangle;collapsible=0;dropTarget=0;pointerEvents=0;fillColor=none;top=0;left=0;bottom=0;right=0;points=[[0,0.5],[1,0.5]];portConstraint=eastwest;" vertex="1" parent="QpPn6M7AtIJ3UEPPNxAw-147">
          <mxGeometry y="90" width="450" height="30" as="geometry" />
        </mxCell>
        <mxCell id="QpPn6M7AtIJ3UEPPNxAw-155" value="" style="shape=partialRectangle;connectable=0;fillColor=none;top=0;left=0;bottom=0;right=0;editable=1;overflow=hidden;" vertex="1" parent="QpPn6M7AtIJ3UEPPNxAw-154">
          <mxGeometry width="30" height="30" as="geometry">
            <mxRectangle width="30" height="30" as="alternateBounds" />
          </mxGeometry>
        </mxCell>
        <mxCell id="QpPn6M7AtIJ3UEPPNxAw-156" value="cp_name : bigint : 회사(kn_company) id" style="shape=partialRectangle;connectable=0;fillColor=none;top=0;left=0;bottom=0;right=0;align=left;spacingLeft=6;overflow=hidden;" vertex="1" parent="QpPn6M7AtIJ3UEPPNxAw-154">
          <mxGeometry x="30" width="420" height="30" as="geometry">
            <mxRectangle width="420" height="30" as="alternateBounds" />
          </mxGeometry>
        </mxCell>
        <mxCell id="QpPn6M7AtIJ3UEPPNxAw-157" value="" style="shape=partialRectangle;collapsible=0;dropTarget=0;pointerEvents=0;fillColor=none;top=0;left=0;bottom=0;right=0;points=[[0,0.5],[1,0.5]];portConstraint=eastwest;" vertex="1" parent="QpPn6M7AtIJ3UEPPNxAw-147">
          <mxGeometry y="120" width="450" height="30" as="geometry" />
        </mxCell>
        <mxCell id="QpPn6M7AtIJ3UEPPNxAw-158" value="" style="shape=partialRectangle;connectable=0;fillColor=none;top=0;left=0;bottom=0;right=0;editable=1;overflow=hidden;" vertex="1" parent="QpPn6M7AtIJ3UEPPNxAw-157">
          <mxGeometry width="30" height="30" as="geometry">
            <mxRectangle width="30" height="30" as="alternateBounds" />
          </mxGeometry>
        </mxCell>
        <mxCell id="QpPn6M7AtIJ3UEPPNxAw-159" value="cp_representative : varchar(64) : 대표자명" style="shape=partialRectangle;connectable=0;fillColor=none;top=0;left=0;bottom=0;right=0;align=left;spacingLeft=6;overflow=hidden;" vertex="1" parent="QpPn6M7AtIJ3UEPPNxAw-157">
          <mxGeometry x="30" width="420" height="30" as="geometry">
            <mxRectangle width="420" height="30" as="alternateBounds" />
          </mxGeometry>
        </mxCell>
        <mxCell id="QpPn6M7AtIJ3UEPPNxAw-160" value="" style="shape=partialRectangle;collapsible=0;dropTarget=0;pointerEvents=0;fillColor=none;top=0;left=0;bottom=0;right=0;points=[[0,0.5],[1,0.5]];portConstraint=eastwest;" vertex="1" parent="QpPn6M7AtIJ3UEPPNxAw-147">
          <mxGeometry y="150" width="450" height="30" as="geometry" />
        </mxCell>
        <mxCell id="QpPn6M7AtIJ3UEPPNxAw-161" value="&#xa;&#xa;&lt;span style=&quot;color: rgb(0, 0, 0); font-family: helvetica; font-size: 12px; font-style: normal; font-weight: 400; letter-spacing: normal; text-align: left; text-indent: 0px; text-transform: none; word-spacing: 0px; background-color: rgb(248, 249, 250); display: inline; float: none;&quot;&gt;pi_weight_safe : double :&amp;nbsp;접수코드&lt;/span&gt;&#xa;&#xa;" style="shape=partialRectangle;connectable=0;fillColor=none;top=0;left=0;bottom=0;right=0;editable=1;overflow=hidden;" vertex="1" parent="QpPn6M7AtIJ3UEPPNxAw-160">
          <mxGeometry width="30" height="30" as="geometry">
            <mxRectangle width="30" height="30" as="alternateBounds" />
          </mxGeometry>
        </mxCell>
        <mxCell id="QpPn6M7AtIJ3UEPPNxAw-162" value="cp_business_number : varchar(10) : 사업자등록번호" style="shape=partialRectangle;connectable=0;fillColor=none;top=0;left=0;bottom=0;right=0;align=left;spacingLeft=6;overflow=hidden;" vertex="1" parent="QpPn6M7AtIJ3UEPPNxAw-160">
          <mxGeometry x="30" width="420" height="30" as="geometry">
            <mxRectangle width="420" height="30" as="alternateBounds" />
          </mxGeometry>
        </mxCell>
        <mxCell id="QpPn6M7AtIJ3UEPPNxAw-163" value="" style="shape=partialRectangle;collapsible=0;dropTarget=0;pointerEvents=0;fillColor=none;top=0;left=0;bottom=0;right=0;points=[[0,0.5],[1,0.5]];portConstraint=eastwest;" vertex="1" parent="QpPn6M7AtIJ3UEPPNxAw-147">
          <mxGeometry y="180" width="450" height="30" as="geometry" />
        </mxCell>
        <mxCell id="QpPn6M7AtIJ3UEPPNxAw-164" value="" style="shape=partialRectangle;connectable=0;fillColor=none;top=0;left=0;bottom=0;right=0;editable=1;overflow=hidden;" vertex="1" parent="QpPn6M7AtIJ3UEPPNxAw-163">
          <mxGeometry width="30" height="30" as="geometry">
            <mxRectangle width="30" height="30" as="alternateBounds" />
          </mxGeometry>
        </mxCell>
        <mxCell id="QpPn6M7AtIJ3UEPPNxAw-165" value="cp_business_type : varchar(128) : 업태/업종" style="shape=partialRectangle;connectable=0;fillColor=none;top=0;left=0;bottom=0;right=0;align=left;spacingLeft=6;overflow=hidden;" vertex="1" parent="QpPn6M7AtIJ3UEPPNxAw-163">
          <mxGeometry x="30" width="420" height="30" as="geometry">
            <mxRectangle width="420" height="30" as="alternateBounds" />
          </mxGeometry>
        </mxCell>
        <mxCell id="QpPn6M7AtIJ3UEPPNxAw-166" value="" style="shape=partialRectangle;collapsible=0;dropTarget=0;pointerEvents=0;fillColor=none;top=0;left=0;bottom=0;right=0;points=[[0,0.5],[1,0.5]];portConstraint=eastwest;" vertex="1" parent="QpPn6M7AtIJ3UEPPNxAw-147">
          <mxGeometry y="210" width="450" height="30" as="geometry" />
        </mxCell>
        <mxCell id="QpPn6M7AtIJ3UEPPNxAw-167" value="" style="shape=partialRectangle;connectable=0;fillColor=none;top=0;left=0;bottom=0;right=0;editable=1;overflow=hidden;" vertex="1" parent="QpPn6M7AtIJ3UEPPNxAw-166">
          <mxGeometry width="30" height="30" as="geometry">
            <mxRectangle width="30" height="30" as="alternateBounds" />
          </mxGeometry>
        </mxCell>
        <mxCell id="QpPn6M7AtIJ3UEPPNxAw-168" value="cp_tel : varchar(11) : 사업장 전화번호" style="shape=partialRectangle;connectable=0;fillColor=none;top=0;left=0;bottom=0;right=0;align=left;spacingLeft=6;overflow=hidden;" vertex="1" parent="QpPn6M7AtIJ3UEPPNxAw-166">
          <mxGeometry x="30" width="420" height="30" as="geometry">
            <mxRectangle width="420" height="30" as="alternateBounds" />
          </mxGeometry>
        </mxCell>
        <mxCell id="QpPn6M7AtIJ3UEPPNxAw-169" value="" style="shape=partialRectangle;collapsible=0;dropTarget=0;pointerEvents=0;fillColor=none;top=0;left=0;bottom=0;right=0;points=[[0,0.5],[1,0.5]];portConstraint=eastwest;" vertex="1" parent="QpPn6M7AtIJ3UEPPNxAw-147">
          <mxGeometry y="240" width="450" height="30" as="geometry" />
        </mxCell>
        <mxCell id="QpPn6M7AtIJ3UEPPNxAw-170" value="" style="shape=partialRectangle;connectable=0;fillColor=none;top=0;left=0;bottom=0;right=0;editable=1;overflow=hidden;" vertex="1" parent="QpPn6M7AtIJ3UEPPNxAw-169">
          <mxGeometry width="30" height="30" as="geometry">
            <mxRectangle width="30" height="30" as="alternateBounds" />
          </mxGeometry>
        </mxCell>
        <mxCell id="QpPn6M7AtIJ3UEPPNxAw-171" value="cp_address_number : varchar(64) : 우편번호(주소)" style="shape=partialRectangle;connectable=0;fillColor=none;top=0;left=0;bottom=0;right=0;align=left;spacingLeft=6;overflow=hidden;" vertex="1" parent="QpPn6M7AtIJ3UEPPNxAw-169">
          <mxGeometry x="30" width="420" height="30" as="geometry">
            <mxRectangle width="420" height="30" as="alternateBounds" />
          </mxGeometry>
        </mxCell>
        <mxCell id="QpPn6M7AtIJ3UEPPNxAw-172" value="" style="shape=partialRectangle;collapsible=0;dropTarget=0;pointerEvents=0;fillColor=none;top=0;left=0;bottom=0;right=0;points=[[0,0.5],[1,0.5]];portConstraint=eastwest;" vertex="1" parent="QpPn6M7AtIJ3UEPPNxAw-147">
          <mxGeometry y="270" width="450" height="25" as="geometry" />
        </mxCell>
        <mxCell id="QpPn6M7AtIJ3UEPPNxAw-173" value="" style="shape=partialRectangle;connectable=0;fillColor=none;top=0;left=0;bottom=0;right=0;editable=1;overflow=hidden;" vertex="1" parent="QpPn6M7AtIJ3UEPPNxAw-172">
          <mxGeometry width="30" height="25" as="geometry">
            <mxRectangle width="30" height="25" as="alternateBounds" />
          </mxGeometry>
        </mxCell>
        <mxCell id="QpPn6M7AtIJ3UEPPNxAw-174" value="cp_address : varchar(128) : 주소" style="shape=partialRectangle;connectable=0;fillColor=none;top=0;left=0;bottom=0;right=0;align=left;spacingLeft=6;overflow=hidden;" vertex="1" parent="QpPn6M7AtIJ3UEPPNxAw-172">
          <mxGeometry x="30" width="420" height="25" as="geometry">
            <mxRectangle width="420" height="25" as="alternateBounds" />
          </mxGeometry>
        </mxCell>
        <mxCell id="QpPn6M7AtIJ3UEPPNxAw-175" value="" style="shape=partialRectangle;collapsible=0;dropTarget=0;pointerEvents=0;fillColor=none;top=0;left=0;bottom=0;right=0;points=[[0,0.5],[1,0.5]];portConstraint=eastwest;" vertex="1" parent="QpPn6M7AtIJ3UEPPNxAw-147">
          <mxGeometry y="295" width="450" height="30" as="geometry" />
        </mxCell>
        <mxCell id="QpPn6M7AtIJ3UEPPNxAw-176" value="" style="shape=partialRectangle;connectable=0;fillColor=none;top=0;left=0;bottom=0;right=0;editable=1;overflow=hidden;" vertex="1" parent="QpPn6M7AtIJ3UEPPNxAw-175">
          <mxGeometry width="30" height="30" as="geometry">
            <mxRectangle width="30" height="30" as="alternateBounds" />
          </mxGeometry>
        </mxCell>
        <mxCell id="QpPn6M7AtIJ3UEPPNxAw-177" value="cp_address_detail : varchar(256) : 상세주소" style="shape=partialRectangle;connectable=0;fillColor=none;top=0;left=0;bottom=0;right=0;align=left;spacingLeft=6;overflow=hidden;" vertex="1" parent="QpPn6M7AtIJ3UEPPNxAw-175">
          <mxGeometry x="30" width="420" height="30" as="geometry">
            <mxRectangle width="420" height="30" as="alternateBounds" />
          </mxGeometry>
        </mxCell>
        <mxCell id="QpPn6M7AtIJ3UEPPNxAw-194" value="" style="shape=partialRectangle;collapsible=0;dropTarget=0;pointerEvents=0;fillColor=none;top=0;left=0;bottom=0;right=0;points=[[0,0.5],[1,0.5]];portConstraint=eastwest;" vertex="1" parent="QpPn6M7AtIJ3UEPPNxAw-147">
          <mxGeometry y="325" width="450" height="30" as="geometry" />
        </mxCell>
        <mxCell id="QpPn6M7AtIJ3UEPPNxAw-195" value="" style="shape=partialRectangle;connectable=0;fillColor=none;top=0;left=0;bottom=0;right=0;editable=1;overflow=hidden;" vertex="1" parent="QpPn6M7AtIJ3UEPPNxAw-194">
          <mxGeometry width="30" height="30" as="geometry">
            <mxRectangle width="30" height="30" as="alternateBounds" />
          </mxGeometry>
        </mxCell>
        <mxCell id="QpPn6M7AtIJ3UEPPNxAw-196" value="cp_pay_day : int : 결제일(5일,10일 등 일자)" style="shape=partialRectangle;connectable=0;fillColor=none;top=0;left=0;bottom=0;right=0;align=left;spacingLeft=6;overflow=hidden;" vertex="1" parent="QpPn6M7AtIJ3UEPPNxAw-194">
          <mxGeometry x="30" width="420" height="30" as="geometry">
            <mxRectangle width="420" height="30" as="alternateBounds" />
          </mxGeometry>
        </mxCell>
        <mxCell id="QpPn6M7AtIJ3UEPPNxAw-215" value="" style="shape=partialRectangle;collapsible=0;dropTarget=0;pointerEvents=0;fillColor=none;top=0;left=0;bottom=0;right=0;points=[[0,0.5],[1,0.5]];portConstraint=eastwest;" vertex="1" parent="QpPn6M7AtIJ3UEPPNxAw-147">
          <mxGeometry y="355" width="450" height="30" as="geometry" />
        </mxCell>
        <mxCell id="QpPn6M7AtIJ3UEPPNxAw-216" value="" style="shape=partialRectangle;connectable=0;fillColor=none;top=0;left=0;bottom=0;right=0;editable=1;overflow=hidden;" vertex="1" parent="QpPn6M7AtIJ3UEPPNxAw-215">
          <mxGeometry width="30" height="30" as="geometry">
            <mxRectangle width="30" height="30" as="alternateBounds" />
          </mxGeometry>
        </mxCell>
        <mxCell id="QpPn6M7AtIJ3UEPPNxAw-217" value="cp_pay_date : datetime : 결제등록일" style="shape=partialRectangle;connectable=0;fillColor=none;top=0;left=0;bottom=0;right=0;align=left;spacingLeft=6;overflow=hidden;" vertex="1" parent="QpPn6M7AtIJ3UEPPNxAw-215">
          <mxGeometry x="30" width="420" height="30" as="geometry">
            <mxRectangle width="420" height="30" as="alternateBounds" />
          </mxGeometry>
        </mxCell>
        <mxCell id="QpPn6M7AtIJ3UEPPNxAw-212" value="" style="shape=partialRectangle;collapsible=0;dropTarget=0;pointerEvents=0;fillColor=none;top=0;left=0;bottom=0;right=0;points=[[0,0.5],[1,0.5]];portConstraint=eastwest;" vertex="1" parent="QpPn6M7AtIJ3UEPPNxAw-147">
          <mxGeometry y="385" width="450" height="30" as="geometry" />
        </mxCell>
        <mxCell id="QpPn6M7AtIJ3UEPPNxAw-213" value="" style="shape=partialRectangle;connectable=0;fillColor=none;top=0;left=0;bottom=0;right=0;editable=1;overflow=hidden;" vertex="1" parent="QpPn6M7AtIJ3UEPPNxAw-212">
          <mxGeometry width="30" height="30" as="geometry">
            <mxRectangle width="30" height="30" as="alternateBounds" />
          </mxGeometry>
        </mxCell>
        <mxCell id="QpPn6M7AtIJ3UEPPNxAw-214" value="cp_is_auto_pay : int : 자동결제(1:자동결제안함, 2:첫결제신청, 3: 해제, 4:첫결제 이후 재결제, 6:강제해제)" style="shape=partialRectangle;connectable=0;fillColor=none;top=0;left=0;bottom=0;right=0;align=left;spacingLeft=6;overflow=hidden;" vertex="1" parent="QpPn6M7AtIJ3UEPPNxAw-212">
          <mxGeometry x="30" width="420" height="30" as="geometry">
            <mxRectangle width="420" height="30" as="alternateBounds" />
          </mxGeometry>
        </mxCell>
        <mxCell id="QpPn6M7AtIJ3UEPPNxAw-209" value="" style="shape=partialRectangle;collapsible=0;dropTarget=0;pointerEvents=0;fillColor=none;top=0;left=0;bottom=0;right=0;points=[[0,0.5],[1,0.5]];portConstraint=eastwest;" vertex="1" parent="QpPn6M7AtIJ3UEPPNxAw-147">
          <mxGeometry y="415" width="450" height="30" as="geometry" />
        </mxCell>
        <mxCell id="QpPn6M7AtIJ3UEPPNxAw-210" value="" style="shape=partialRectangle;connectable=0;fillColor=none;top=0;left=0;bottom=0;right=0;editable=1;overflow=hidden;" vertex="1" parent="QpPn6M7AtIJ3UEPPNxAw-209">
          <mxGeometry width="30" height="30" as="geometry">
            <mxRectangle width="30" height="30" as="alternateBounds" />
          </mxGeometry>
        </mxCell>
        <mxCell id="QpPn6M7AtIJ3UEPPNxAw-211" value="cp_billing_key : varchar(128) : 카드(빌링키)와 1:1로 대응하는 값" style="shape=partialRectangle;connectable=0;fillColor=none;top=0;left=0;bottom=0;right=0;align=left;spacingLeft=6;overflow=hidden;" vertex="1" parent="QpPn6M7AtIJ3UEPPNxAw-209">
          <mxGeometry x="30" width="420" height="30" as="geometry">
            <mxRectangle width="420" height="30" as="alternateBounds" />
          </mxGeometry>
        </mxCell>
        <mxCell id="QpPn6M7AtIJ3UEPPNxAw-206" value="" style="shape=partialRectangle;collapsible=0;dropTarget=0;pointerEvents=0;fillColor=none;top=0;left=0;bottom=0;right=0;points=[[0,0.5],[1,0.5]];portConstraint=eastwest;" vertex="1" parent="QpPn6M7AtIJ3UEPPNxAw-147">
          <mxGeometry y="445" width="450" height="30" as="geometry" />
        </mxCell>
        <mxCell id="QpPn6M7AtIJ3UEPPNxAw-207" value="" style="shape=partialRectangle;connectable=0;fillColor=none;top=0;left=0;bottom=0;right=0;editable=1;overflow=hidden;" vertex="1" parent="QpPn6M7AtIJ3UEPPNxAw-206">
          <mxGeometry width="30" height="30" as="geometry">
            <mxRectangle width="30" height="30" as="alternateBounds" />
          </mxGeometry>
        </mxCell>
        <mxCell id="QpPn6M7AtIJ3UEPPNxAw-208" value="cp_stop_service_price : int : 서비스 결제 X 강제 해지시 결제 안한 금액" style="shape=partialRectangle;connectable=0;fillColor=none;top=0;left=0;bottom=0;right=0;align=left;spacingLeft=6;overflow=hidden;" vertex="1" parent="QpPn6M7AtIJ3UEPPNxAw-206">
          <mxGeometry x="30" width="420" height="30" as="geometry">
            <mxRectangle width="420" height="30" as="alternateBounds" />
          </mxGeometry>
        </mxCell>
        <mxCell id="QpPn6M7AtIJ3UEPPNxAw-203" value="" style="shape=partialRectangle;collapsible=0;dropTarget=0;pointerEvents=0;fillColor=none;top=0;left=0;bottom=0;right=0;points=[[0,0.5],[1,0.5]];portConstraint=eastwest;" vertex="1" parent="QpPn6M7AtIJ3UEPPNxAw-147">
          <mxGeometry y="475" width="450" height="30" as="geometry" />
        </mxCell>
        <mxCell id="QpPn6M7AtIJ3UEPPNxAw-204" value="" style="shape=partialRectangle;connectable=0;fillColor=none;top=0;left=0;bottom=0;right=0;editable=1;overflow=hidden;" vertex="1" parent="QpPn6M7AtIJ3UEPPNxAw-203">
          <mxGeometry width="30" height="30" as="geometry">
            <mxRectangle width="30" height="30" as="alternateBounds" />
          </mxGeometry>
        </mxCell>
        <mxCell id="QpPn6M7AtIJ3UEPPNxAw-205" value="cp_not_auto_pay_date : datetime : 자동결제 해지일시" style="shape=partialRectangle;connectable=0;fillColor=none;top=0;left=0;bottom=0;right=0;align=left;spacingLeft=6;overflow=hidden;" vertex="1" parent="QpPn6M7AtIJ3UEPPNxAw-203">
          <mxGeometry x="30" width="420" height="30" as="geometry">
            <mxRectangle width="420" height="30" as="alternateBounds" />
          </mxGeometry>
        </mxCell>
        <mxCell id="QpPn6M7AtIJ3UEPPNxAw-200" value="" style="shape=partialRectangle;collapsible=0;dropTarget=0;pointerEvents=0;fillColor=none;top=0;left=0;bottom=0;right=0;points=[[0,0.5],[1,0.5]];portConstraint=eastwest;" vertex="1" parent="QpPn6M7AtIJ3UEPPNxAw-147">
          <mxGeometry y="505" width="450" height="30" as="geometry" />
        </mxCell>
        <mxCell id="QpPn6M7AtIJ3UEPPNxAw-201" value="" style="shape=partialRectangle;connectable=0;fillColor=none;top=0;left=0;bottom=0;right=0;editable=1;overflow=hidden;" vertex="1" parent="QpPn6M7AtIJ3UEPPNxAw-200">
          <mxGeometry width="30" height="30" as="geometry">
            <mxRectangle width="30" height="30" as="alternateBounds" />
          </mxGeometry>
        </mxCell>
        <mxCell id="QpPn6M7AtIJ3UEPPNxAw-202" value="cp_valid_start : datetime : 회원권 시작일" style="shape=partialRectangle;connectable=0;fillColor=none;top=0;left=0;bottom=0;right=0;align=left;spacingLeft=6;overflow=hidden;" vertex="1" parent="QpPn6M7AtIJ3UEPPNxAw-200">
          <mxGeometry x="30" width="420" height="30" as="geometry">
            <mxRectangle width="420" height="30" as="alternateBounds" />
          </mxGeometry>
        </mxCell>
        <mxCell id="QpPn6M7AtIJ3UEPPNxAw-197" value="" style="shape=partialRectangle;collapsible=0;dropTarget=0;pointerEvents=0;fillColor=none;top=0;left=0;bottom=0;right=0;points=[[0,0.5],[1,0.5]];portConstraint=eastwest;" vertex="1" parent="QpPn6M7AtIJ3UEPPNxAw-147">
          <mxGeometry y="535" width="450" height="30" as="geometry" />
        </mxCell>
        <mxCell id="QpPn6M7AtIJ3UEPPNxAw-198" value="" style="shape=partialRectangle;connectable=0;fillColor=none;top=0;left=0;bottom=0;right=0;editable=1;overflow=hidden;" vertex="1" parent="QpPn6M7AtIJ3UEPPNxAw-197">
          <mxGeometry width="30" height="30" as="geometry">
            <mxRectangle width="30" height="30" as="alternateBounds" />
          </mxGeometry>
        </mxCell>
        <mxCell id="QpPn6M7AtIJ3UEPPNxAw-199" value="cp_valid_end : datetime : 회원권 종료일" style="shape=partialRectangle;connectable=0;fillColor=none;top=0;left=0;bottom=0;right=0;align=left;spacingLeft=6;overflow=hidden;" vertex="1" parent="QpPn6M7AtIJ3UEPPNxAw-197">
          <mxGeometry x="30" width="420" height="30" as="geometry">
            <mxRectangle width="420" height="30" as="alternateBounds" />
          </mxGeometry>
        </mxCell>
        <mxCell id="QpPn6M7AtIJ3UEPPNxAw-218" value="" style="shape=partialRectangle;collapsible=0;dropTarget=0;pointerEvents=0;fillColor=none;top=0;left=0;bottom=0;right=0;points=[[0,0.5],[1,0.5]];portConstraint=eastwest;" vertex="1" parent="QpPn6M7AtIJ3UEPPNxAw-147">
          <mxGeometry y="565" width="450" height="30" as="geometry" />
        </mxCell>
        <mxCell id="QpPn6M7AtIJ3UEPPNxAw-219" value="" style="shape=partialRectangle;connectable=0;fillColor=none;top=0;left=0;bottom=0;right=0;editable=1;overflow=hidden;" vertex="1" parent="QpPn6M7AtIJ3UEPPNxAw-218">
          <mxGeometry width="30" height="30" as="geometry">
            <mxRectangle width="30" height="30" as="alternateBounds" />
          </mxGeometry>
        </mxCell>
        <mxCell id="QpPn6M7AtIJ3UEPPNxAw-220" value="cp_pay_request_uid : varchar(256) : 결제요청UID" style="shape=partialRectangle;connectable=0;fillColor=none;top=0;left=0;bottom=0;right=0;align=left;spacingLeft=6;overflow=hidden;" vertex="1" parent="QpPn6M7AtIJ3UEPPNxAw-218">
          <mxGeometry x="30" width="420" height="30" as="geometry">
            <mxRectangle width="420" height="30" as="alternateBounds" />
          </mxGeometry>
        </mxCell>
        <mxCell id="QpPn6M7AtIJ3UEPPNxAw-224" value="" style="shape=partialRectangle;collapsible=0;dropTarget=0;pointerEvents=0;fillColor=none;top=0;left=0;bottom=0;right=0;points=[[0,0.5],[1,0.5]];portConstraint=eastwest;" vertex="1" parent="QpPn6M7AtIJ3UEPPNxAw-147">
          <mxGeometry y="595" width="450" height="30" as="geometry" />
        </mxCell>
        <mxCell id="QpPn6M7AtIJ3UEPPNxAw-225" value="" style="shape=partialRectangle;connectable=0;fillColor=none;top=0;left=0;bottom=0;right=0;editable=1;overflow=hidden;" vertex="1" parent="QpPn6M7AtIJ3UEPPNxAw-224">
          <mxGeometry width="30" height="30" as="geometry">
            <mxRectangle width="30" height="30" as="alternateBounds" />
          </mxGeometry>
        </mxCell>
        <mxCell id="QpPn6M7AtIJ3UEPPNxAw-226" value="cp_encrypt_text : varchar(256) : 암호화한 키" style="shape=partialRectangle;connectable=0;fillColor=none;top=0;left=0;bottom=0;right=0;align=left;spacingLeft=6;overflow=hidden;" vertex="1" parent="QpPn6M7AtIJ3UEPPNxAw-224">
          <mxGeometry x="30" width="420" height="30" as="geometry">
            <mxRectangle width="420" height="30" as="alternateBounds" />
          </mxGeometry>
        </mxCell>
        <mxCell id="QpPn6M7AtIJ3UEPPNxAw-221" value="" style="shape=partialRectangle;collapsible=0;dropTarget=0;pointerEvents=0;fillColor=none;top=0;left=0;bottom=0;right=0;points=[[0,0.5],[1,0.5]];portConstraint=eastwest;" vertex="1" parent="QpPn6M7AtIJ3UEPPNxAw-147">
          <mxGeometry y="625" width="450" height="30" as="geometry" />
        </mxCell>
        <mxCell id="QpPn6M7AtIJ3UEPPNxAw-222" value="" style="shape=partialRectangle;connectable=0;fillColor=none;top=0;left=0;bottom=0;right=0;editable=1;overflow=hidden;" vertex="1" parent="QpPn6M7AtIJ3UEPPNxAw-221">
          <mxGeometry width="30" height="30" as="geometry">
            <mxRectangle width="30" height="30" as="alternateBounds" />
          </mxGeometry>
        </mxCell>
        <mxCell id="QpPn6M7AtIJ3UEPPNxAw-223" value="cp_data_key : varchar(256) : 복호화에 사용할 데이터 키" style="shape=partialRectangle;connectable=0;fillColor=none;top=0;left=0;bottom=0;right=0;align=left;spacingLeft=6;overflow=hidden;" vertex="1" parent="QpPn6M7AtIJ3UEPPNxAw-221">
          <mxGeometry x="30" width="420" height="30" as="geometry">
            <mxRectangle width="420" height="30" as="alternateBounds" />
          </mxGeometry>
        </mxCell>
        <mxCell id="QpPn6M7AtIJ3UEPPNxAw-227" value="" style="shape=partialRectangle;collapsible=0;dropTarget=0;pointerEvents=0;fillColor=none;top=0;left=0;bottom=0;right=0;points=[[0,0.5],[1,0.5]];portConstraint=eastwest;" vertex="1" parent="QpPn6M7AtIJ3UEPPNxAw-147">
          <mxGeometry y="655" width="450" height="30" as="geometry" />
        </mxCell>
        <mxCell id="QpPn6M7AtIJ3UEPPNxAw-228" value="" style="shape=partialRectangle;connectable=0;fillColor=none;top=0;left=0;bottom=0;right=0;editable=1;overflow=hidden;" vertex="1" parent="QpPn6M7AtIJ3UEPPNxAw-227">
          <mxGeometry width="30" height="30" as="geometry">
            <mxRectangle width="30" height="30" as="alternateBounds" />
          </mxGeometry>
        </mxCell>
        <mxCell id="QpPn6M7AtIJ3UEPPNxAw-229" value="cp_dormant_accumulate : int : 누적 휴면회원 수" style="shape=partialRectangle;connectable=0;fillColor=none;top=0;left=0;bottom=0;right=0;align=left;spacingLeft=6;overflow=hidden;" vertex="1" parent="QpPn6M7AtIJ3UEPPNxAw-227">
          <mxGeometry x="30" width="420" height="30" as="geometry">
            <mxRectangle width="420" height="30" as="alternateBounds" />
          </mxGeometry>
        </mxCell>
        <mxCell id="QpPn6M7AtIJ3UEPPNxAw-178" value="" style="shape=partialRectangle;collapsible=0;dropTarget=0;pointerEvents=0;fillColor=none;top=0;left=0;bottom=0;right=0;points=[[0,0.5],[1,0.5]];portConstraint=eastwest;" vertex="1" parent="QpPn6M7AtIJ3UEPPNxAw-147">
          <mxGeometry y="685" width="450" height="30" as="geometry" />
        </mxCell>
        <mxCell id="QpPn6M7AtIJ3UEPPNxAw-179" value="" style="shape=partialRectangle;connectable=0;fillColor=none;top=0;left=0;bottom=0;right=0;editable=1;overflow=hidden;" vertex="1" parent="QpPn6M7AtIJ3UEPPNxAw-178">
          <mxGeometry width="30" height="30" as="geometry">
            <mxRectangle width="30" height="30" as="alternateBounds" />
          </mxGeometry>
        </mxCell>
        <mxCell id="QpPn6M7AtIJ3UEPPNxAw-180" value="insert_email : varchar(320) : 등록자 email" style="shape=partialRectangle;connectable=0;fillColor=none;top=0;left=0;bottom=0;right=0;align=left;spacingLeft=6;overflow=hidden;" vertex="1" parent="QpPn6M7AtIJ3UEPPNxAw-178">
          <mxGeometry x="30" width="420" height="30" as="geometry">
            <mxRectangle width="420" height="30" as="alternateBounds" />
          </mxGeometry>
        </mxCell>
        <mxCell id="QpPn6M7AtIJ3UEPPNxAw-191" value="" style="shape=partialRectangle;collapsible=0;dropTarget=0;pointerEvents=0;fillColor=none;top=0;left=0;bottom=0;right=0;points=[[0,0.5],[1,0.5]];portConstraint=eastwest;" vertex="1" parent="QpPn6M7AtIJ3UEPPNxAw-147">
          <mxGeometry y="715" width="450" height="30" as="geometry" />
        </mxCell>
        <mxCell id="QpPn6M7AtIJ3UEPPNxAw-192" value="" style="shape=partialRectangle;connectable=0;fillColor=none;top=0;left=0;bottom=0;right=0;editable=1;overflow=hidden;" vertex="1" parent="QpPn6M7AtIJ3UEPPNxAw-191">
          <mxGeometry width="30" height="30" as="geometry">
            <mxRectangle width="30" height="30" as="alternateBounds" />
          </mxGeometry>
        </mxCell>
        <mxCell id="QpPn6M7AtIJ3UEPPNxAw-193" value="insert_date : datetime : 등록 날짜" style="shape=partialRectangle;connectable=0;fillColor=none;top=0;left=0;bottom=0;right=0;align=left;spacingLeft=6;overflow=hidden;" vertex="1" parent="QpPn6M7AtIJ3UEPPNxAw-191">
          <mxGeometry x="30" width="420" height="30" as="geometry">
            <mxRectangle width="420" height="30" as="alternateBounds" />
          </mxGeometry>
        </mxCell>
        <mxCell id="QpPn6M7AtIJ3UEPPNxAw-182" value="" style="shape=partialRectangle;collapsible=0;dropTarget=0;pointerEvents=0;fillColor=none;top=0;left=0;bottom=0;right=0;points=[[0,0.5],[1,0.5]];portConstraint=eastwest;" vertex="1" parent="QpPn6M7AtIJ3UEPPNxAw-147">
          <mxGeometry y="745" width="450" height="30" as="geometry" />
        </mxCell>
        <mxCell id="QpPn6M7AtIJ3UEPPNxAw-183" value="" style="shape=partialRectangle;connectable=0;fillColor=none;top=0;left=0;bottom=0;right=0;editable=1;overflow=hidden;" vertex="1" parent="QpPn6M7AtIJ3UEPPNxAw-182">
          <mxGeometry width="30" height="30" as="geometry">
            <mxRectangle width="30" height="30" as="alternateBounds" />
          </mxGeometry>
        </mxCell>
        <mxCell id="QpPn6M7AtIJ3UEPPNxAw-184" value="modify_id : bigint : 등록일시" style="shape=partialRectangle;connectable=0;fillColor=none;top=0;left=0;bottom=0;right=0;align=left;spacingLeft=6;overflow=hidden;" vertex="1" parent="QpPn6M7AtIJ3UEPPNxAw-182">
          <mxGeometry x="30" width="420" height="30" as="geometry">
            <mxRectangle width="420" height="30" as="alternateBounds" />
          </mxGeometry>
        </mxCell>
        <mxCell id="QpPn6M7AtIJ3UEPPNxAw-185" value="" style="shape=partialRectangle;collapsible=0;dropTarget=0;pointerEvents=0;fillColor=none;top=0;left=0;bottom=0;right=0;points=[[0,0.5],[1,0.5]];portConstraint=eastwest;" vertex="1" parent="QpPn6M7AtIJ3UEPPNxAw-147">
          <mxGeometry y="775" width="450" height="30" as="geometry" />
        </mxCell>
        <mxCell id="QpPn6M7AtIJ3UEPPNxAw-186" value="" style="shape=partialRectangle;connectable=0;fillColor=none;top=0;left=0;bottom=0;right=0;editable=1;overflow=hidden;" vertex="1" parent="QpPn6M7AtIJ3UEPPNxAw-185">
          <mxGeometry width="30" height="30" as="geometry">
            <mxRectangle width="30" height="30" as="alternateBounds" />
          </mxGeometry>
        </mxCell>
        <mxCell id="QpPn6M7AtIJ3UEPPNxAw-187" value="modify_email : varchar(320): 수정자 email" style="shape=partialRectangle;connectable=0;fillColor=none;top=0;left=0;bottom=0;right=0;align=left;spacingLeft=6;overflow=hidden;" vertex="1" parent="QpPn6M7AtIJ3UEPPNxAw-185">
          <mxGeometry x="30" width="420" height="30" as="geometry">
            <mxRectangle width="420" height="30" as="alternateBounds" />
          </mxGeometry>
        </mxCell>
        <mxCell id="QpPn6M7AtIJ3UEPPNxAw-188" value="" style="shape=partialRectangle;collapsible=0;dropTarget=0;pointerEvents=0;fillColor=none;top=0;left=0;bottom=0;right=0;points=[[0,0.5],[1,0.5]];portConstraint=eastwest;" vertex="1" parent="QpPn6M7AtIJ3UEPPNxAw-147">
          <mxGeometry y="805" width="450" height="30" as="geometry" />
        </mxCell>
        <mxCell id="QpPn6M7AtIJ3UEPPNxAw-189" value="" style="shape=partialRectangle;connectable=0;fillColor=none;top=0;left=0;bottom=0;right=0;editable=1;overflow=hidden;" vertex="1" parent="QpPn6M7AtIJ3UEPPNxAw-188">
          <mxGeometry width="30" height="30" as="geometry">
            <mxRectangle width="30" height="30" as="alternateBounds" />
          </mxGeometry>
        </mxCell>
        <mxCell id="QpPn6M7AtIJ3UEPPNxAw-190" value="modify_date : datetime : 수정 날짜" style="shape=partialRectangle;connectable=0;fillColor=none;top=0;left=0;bottom=0;right=0;align=left;spacingLeft=6;overflow=hidden;" vertex="1" parent="QpPn6M7AtIJ3UEPPNxAw-188">
          <mxGeometry x="30" width="420" height="30" as="geometry">
            <mxRectangle width="420" height="30" as="alternateBounds" />
          </mxGeometry>
        </mxCell>
        <mxCell id="QpPn6M7AtIJ3UEPPNxAw-181" value="" style="group" vertex="1" connectable="0" parent="1">
          <mxGeometry x="-2490" y="600" width="2910" height="1510" as="geometry" />
        </mxCell>
        <mxCell id="yN72wSK38ZJyTHiqPAD0-1" value="" style="shape=stencil(fZBdDoMgEIRPs+8UTtDQ9h6oq2wkYhZar19+6kOxNiEkOzOZbwGUDtasCFJYUDeQ8iJEutO8NbMJK/axii/DZDqH1QmR/YwbDfHTQYtFpphddQdxTZl8lO5MP0/sn8vwZew2Z8CR3G4G8tH0JuWkWunRM/5hjuRcfcCP5j10GijoA6Go9V+L8AY=);strokeColor=#4400FF;" parent="QpPn6M7AtIJ3UEPPNxAw-181" vertex="1">
          <mxGeometry width="2910" height="1510" as="geometry" />
        </mxCell>
        <mxCell id="yN72wSK38ZJyTHiqPAD0-2" value="&lt;font style=&quot;font-size: 72px&quot;&gt;&lt;b&gt;서비스 외적인 테이블(비기능)&lt;/b&gt;&lt;/font&gt;" style="text;html=1;align=center;verticalAlign=middle;resizable=0;points=[];autosize=1;strokeColor=none;fillColor=none;" parent="QpPn6M7AtIJ3UEPPNxAw-181" vertex="1">
          <mxGeometry y="60" width="970" height="40" as="geometry" />
        </mxCell>
        <mxCell id="QpPn6M7AtIJ3UEPPNxAw-230" value="" style="edgeStyle=entityRelationEdgeStyle;fontSize=12;html=1;endArrow=ERzeroToMany;endFill=1;rounded=0;exitX=1;exitY=0.5;exitDx=0;exitDy=0;entryX=0;entryY=0.5;entryDx=0;entryDy=0;" edge="1" parent="1" source="QpPn6M7AtIJ3UEPPNxAw-148" target="QpPn6M7AtIJ3UEPPNxAw-15">
          <mxGeometry width="100" height="100" relative="1" as="geometry">
            <mxPoint x="-1990" y="-2110" as="sourcePoint" />
            <mxPoint x="-1920" y="-2020" as="targetPoint" />
          </mxGeometry>
        </mxCell>
      </root>
    </mxGraphModel>
  </diagram>
</mxfile>
